<svg width="19" height="18" viewBox="0 0 19 18" fill="none" xmlns="http://www.w3.org/2000/svg">
<path d="M16.745 7.83001L16.01 10.965C15.38 13.6725 14.135 14.7675 11.795 14.5425C11.42 14.5125 11.015 14.445 10.58 14.34L9.32001 14.04C6.19251 13.2975 5.22501 11.7525 5.96001 8.61751L6.69501 5.47501C6.84501 4.83751 7.02501 4.28251 7.25001 3.82501C8.12751 2.01001 9.62001 1.52251 12.125 2.11501L13.3775 2.40751C16.52 3.14251 17.48 4.69501 16.745 7.83001Z" stroke="#E9E9E9" stroke-width="1.5" stroke-linecap="round" stroke-linejoin="round"/>
<path d="M11.795 14.5426C11.33 14.8576 10.745 15.1201 10.0325 15.3526L8.84751 15.7426C5.87001 16.7026 4.30251 15.9001 3.33501 12.9226L2.37501 9.96007C1.41501 6.98257 2.21001 5.40757 5.18751 4.44757L6.37251 4.05757C6.68001 3.96007 6.97251 3.87757 7.25001 3.82507C7.02501 4.28257 6.84501 4.83757 6.69501 5.47507L5.96001 8.61757C5.22501 11.7526 6.19251 13.2976 9.32001 14.0401L10.58 14.3401C11.015 14.4451 11.42 14.5126 11.795 14.5426Z" stroke="#E9E9E9" stroke-width="1.5" stroke-linecap="round" stroke-linejoin="round"/>
<path d="M9.97998 6.39746L13.6175 7.31996" stroke="#E9E9E9" stroke-width="1.5" stroke-linecap="round" stroke-linejoin="round"/>
<path d="M9.245 9.29993L11.42 9.85493" stroke="#E9E9E9" stroke-width="1.5" stroke-linecap="round" stroke-linejoin="round"/>
</svg>
