<svg width="20" height="21" viewBox="0 0 20 21" fill="none" xmlns="http://www.w3.org/2000/svg">
<path d="M10.8241 1.88928C11.7591 1.89083 12.2329 1.89578 12.6424 1.90797L12.8036 1.91324C12.9899 1.91986 13.1737 1.92817 13.3953 1.93855C14.2794 1.9794 14.8825 2.11926 15.4121 2.32489C15.9597 2.53606 16.4222 2.82131 16.884 3.28312C17.3451 3.74493 17.6304 4.20881 17.8423 4.75508C18.0472 5.28405 18.1871 5.88779 18.2286 6.77194C18.2385 6.99349 18.2465 7.17727 18.2531 7.36358L18.2583 7.52484C18.2704 7.93422 18.276 8.40812 18.2777 9.34318L18.2784 9.96265C18.2785 10.0383 18.2785 10.1164 18.2785 10.197L18.2784 10.4314L18.2779 11.051C18.2763 11.986 18.2714 12.4599 18.2592 12.8692L18.2539 13.0305C18.2473 13.2169 18.239 13.4006 18.2286 13.6221C18.1878 14.5063 18.0472 15.1093 17.8423 15.639C17.6311 16.1867 17.3451 16.6492 16.884 17.111C16.4222 17.5721 15.9576 17.8573 15.4121 18.0692C14.8825 18.2742 14.2794 18.414 13.3953 18.4555C13.1737 18.4654 12.9899 18.4735 12.8036 18.48L12.6424 18.4852C12.2329 18.4974 11.7591 18.5029 10.8241 18.5047L10.2045 18.5054C10.1288 18.5054 10.0507 18.5054 9.97014 18.5054H9.73576L9.11621 18.5048C8.18119 18.5033 7.7073 18.4983 7.2979 18.4861L7.13665 18.4809C6.95034 18.4742 6.76656 18.4659 6.54501 18.4555C5.66086 18.4147 5.0585 18.2742 4.52815 18.0692C3.98118 17.8581 3.51799 17.5721 3.05619 17.111C2.59438 16.6492 2.30982 16.1846 2.09796 15.639C1.89233 15.1093 1.75316 14.5063 1.71162 13.6221C1.70175 13.4006 1.6937 13.2169 1.68718 13.0305L1.68195 12.8692C1.6698 12.4599 1.66426 11.986 1.66246 11.051L1.66235 9.34318C1.6639 8.40812 1.66884 7.93422 1.68103 7.52484L1.68631 7.36358C1.69293 7.17727 1.70124 6.99349 1.71162 6.77194C1.75247 5.8871 1.89233 5.28474 2.09796 4.75508C2.30913 4.20812 2.59438 3.74493 3.05619 3.28312C3.51799 2.82131 3.98188 2.53675 4.52815 2.32489C5.05781 2.11926 5.66017 1.98009 6.54501 1.93855C6.76656 1.92869 6.95034 1.92064 7.13665 1.91412L7.2979 1.90889C7.7073 1.89673 8.18119 1.89118 9.11621 1.88939L10.8241 1.88928ZM9.97014 6.04288C7.67461 6.04288 5.81595 7.90356 5.81595 10.197C5.81595 12.4925 7.67663 14.3512 9.97014 14.3512C12.2657 14.3512 14.1243 12.4906 14.1243 10.197C14.1243 7.90154 12.2636 6.04288 9.97014 6.04288ZM9.97014 7.70455C11.3468 7.70455 12.4626 8.82009 12.4626 10.197C12.4626 11.5736 11.3471 12.6895 9.97014 12.6895C8.59353 12.6895 7.47762 11.5741 7.47762 10.197C7.47762 8.82042 8.59312 7.70455 9.97014 7.70455ZM14.332 4.79662C13.7593 4.79662 13.2935 5.26182 13.2935 5.83446C13.2935 6.40712 13.7587 6.87302 14.332 6.87302C14.9046 6.87302 15.3706 6.40784 15.3706 5.83446C15.3706 5.26182 14.9039 4.79591 14.332 4.79662Z" fill="#4AA5FF"/>
</svg>
