<svg width="180" height="143" viewBox="0 0 180 143" fill="none" xmlns="http://www.w3.org/2000/svg">
<path d="M113.375 28.9548H111.261V28.5751H113.375V28.9548ZM108.35 28.9548H105.439V28.5751H108.35V28.9548ZM102.528 28.9548H99.6172V28.5751H102.528V28.9548ZM96.7063 28.9548H93.7954V28.5751H96.7063V28.9548ZM90.8844 28.9548H87.9735V28.5751H90.8844V28.9548ZM87.1761 26.8285H86.7964V23.9176H87.1761V26.8285ZM87.1761 21.0067H86.7964V18.0957H87.1761V21.0067ZM35.0704 20.7282H34.6907V17.8173H35.0704V20.7282ZM87.1761 15.1848H86.7964V12.2738H87.1761V15.1848ZM35.0704 14.9063H34.6907V11.9954H35.0704V14.9063ZM85.8219 10.7298H82.911V10.3501H85.8219V10.7298ZM80 10.7298H77.0891V10.3501H80V10.7298ZM74.1782 10.7298H71.2672V10.3501H74.1782V10.7298ZM68.3563 10.7298H65.4454V10.3501H68.3563V10.7298ZM62.5344 10.7298H59.6235V10.3501H62.5344V10.7298ZM56.7125 10.7298H53.8016V10.3501H56.7125V10.7298ZM50.8907 10.7298H47.9797V10.3501H50.8907V10.7298ZM45.0688 10.7298H42.1579V10.3501H45.0688V10.7298ZM39.2469 10.7298H36.336V10.3501H39.2469V10.7298Z" fill="white"/>
<path d="M148.926 90.4643H148.546V87.5533H148.926V90.4643ZM148.926 84.6424H148.546V81.7314H148.926V84.6424ZM148.926 78.8205H148.546V75.9096H148.926V78.8205ZM148.926 72.9986H148.546V70.0877H148.926V72.9986ZM148.926 67.1768H148.546V64.2658H148.926V67.1768ZM148.926 61.3549H148.546V58.4439H148.926V61.3549ZM148.926 55.533H148.546V52.6221H148.926V55.533Z" fill="white"/>
<path d="M53.789 80.3393H52.1563V79.9596H53.789V80.3393ZM49.2454 80.3393H46.3344V79.9596H49.2454V80.3393ZM43.4235 80.3393H40.5125V79.9596H43.4235V80.3393ZM37.6016 80.3393H34.6907V79.9596H37.6016V80.3393ZM35.0704 77.0486H34.6907V74.1377H35.0704V77.0486ZM35.0704 71.2268H34.6907V68.3158H35.0704V71.2268ZM35.0704 65.4049H34.6907V62.494H35.0704V65.4049Z" fill="white"/>
<path d="M77.8613 53.2677L79.4307 57.0519C79.4307 57.0519 80.2913 57.9379 81.0887 58.0138L79.9623 53.8246L77.8613 53.2677Z" fill="black"/>
<path d="M90.5556 59.3428L91.5428 62.0892L93.2641 66.9239L81.5064 69.126L80.3294 57.7481L79.9244 55.0017C79.2536 54.7106 78.6967 54.4195 78.2284 54.1284C76.6338 53.1412 76.1275 52.192 76.1149 51.3946C76.1149 51.382 76.1149 51.3693 76.1149 51.3567C76.1022 50.1417 77.1906 49.3064 77.1906 49.3064L76.773 42.029L91.2011 40.9279C91.315 41.2064 91.4289 41.4721 91.5428 41.7506L91.5555 41.8012C92.125 43.206 92.5806 44.5096 92.9477 45.6993L92.9603 45.7373C97.0863 59.2162 90.5556 59.3428 90.5556 59.3428Z" fill="#FEB991"/>
<path d="M79.3041 43.5097L81.3418 51.1161L79.7724 50.9769C79.7724 50.9769 78.684 49.205 77.2538 49.5847C76.6463 49.7492 75.9249 50.9769 76.1527 51.8755C76.1527 51.8755 69.1032 43.1806 73.9632 41.877C73.9632 41.877 79.7724 28.0564 84.8602 35.5869C84.8602 35.5869 90.2645 31.6887 89.8468 37.017C89.8468 37.017 94.1246 34.6503 93.5171 41.5606L93.0615 46.0283L91.5427 41.7758C91.5427 41.7758 88.3027 43.8767 82.5441 42.9655C82.5441 42.9655 84.1515 44.383 86.6701 44.6234C86.6574 44.6108 81.848 44.9778 79.3041 43.5097Z" fill="black"/>
<path d="M91.5299 62.089C86.1383 62.2282 83.8855 57.2037 83.8096 57.0392C85.1385 58.3934 88.4671 59.0389 90.5553 59.3553L91.5299 62.089Z" fill="black"/>
<path d="M123.246 69.5815V84.6425L117.235 83.6426L109.451 82.3643L114.197 122.548L107.135 123.067L74.0137 125.522L72.8746 99.4629V99.3237L64.9012 107.234L63.8887 108.234L59.5855 112.486L59.459 96.1597L63.8001 80.4659L65.167 75.53L80.8607 65.5315C88.4545 71.1003 91.8716 62.6206 91.8716 62.6206L104.072 62.2915C105.199 62.2662 106.325 62.4687 107.376 62.9117L119.741 68.1134L120.336 68.3665L123.246 69.5815Z" fill="#095BFD"/>
<path d="M63.8887 108.221L59.5855 112.473L59.459 96.1469L63.8001 80.4532C66.3946 88.0849 65.5466 101.513 63.8887 108.221Z" fill="black"/>
<path d="M62.6105 110.145C62.6105 110.145 57.3708 117.928 54.0676 110.145C53.0804 107.803 53.1183 103.348 56.8266 93.8055C57.1304 93.0461 57.4468 92.2361 57.7885 91.4135L58.7504 88.1229L64.0027 88.7557C64.0027 88.7557 64.3444 92.6158 64.3824 97.1215C64.4457 102.07 64.1293 107.816 62.6105 110.145Z" fill="#FEB991"/>
<path d="M58.0794 74.5935L83.3286 70.3916C84.3031 70.2271 85.2144 70.8852 85.3789 71.8597L88.3278 89.5785C88.4923 90.553 87.8342 91.4643 86.8597 91.6288L61.6104 95.8307C60.6359 95.9952 59.7247 95.3371 59.5601 94.3625L56.6112 76.6438C56.4594 75.6693 57.1048 74.7454 58.0794 74.5935Z" fill="#BAD0F7"/>
<path d="M123.247 69.5815V84.6425L117.235 83.6426C116.159 81.9847 116.286 79.2003 116.286 79.2003C116.526 76.302 118.387 72.2394 120.323 68.3539L123.247 69.5815Z" fill="black"/>
<path d="M59.6491 94.7043L59.3959 93.4387C59.3959 93.4387 64.0787 90.148 63.6991 87.8699C63.6991 87.8699 63.3194 87.1105 61.9272 88.5027C61.9272 88.5027 64.3319 85.5918 63.9522 84.5793C63.9522 84.5793 63.4459 83.5668 61.6741 85.0855C61.6741 85.0855 62.9397 82.491 62.4841 80.947C62.4081 80.6812 62.0664 80.5926 61.8639 80.7824C61.3703 81.2127 60.3072 82.1999 58.2569 84.3262C58.2569 84.3262 60.2819 79.1371 58.8897 77.8715C58.8897 77.8715 58.3834 77.7449 56.8647 80.5293C56.8647 80.5293 54.6498 84.516 54.9662 85.5918C54.9662 85.5918 55.3459 86.2246 55.7256 86.2246C55.7256 86.2246 54.9662 87.9965 56.6116 89.1355C56.6116 89.1355 55.7256 90.4012 56.8647 91.9199C56.8647 91.9199 57.3709 94.7043 59.6491 94.7043Z" fill="#FEB991"/>
<path d="M127.233 53.3183C127.233 53.3183 119.07 71.8597 118.564 74.5175C118.564 74.5175 115.526 82.1113 121.855 84.3894C124.272 85.2627 128.613 84.5539 130.461 77.4285C131.891 71.9103 133.941 54.9636 133.941 54.9636C133.941 54.9636 136.548 51.3946 138.156 46.4586C138.46 45.5347 138.13 44.5222 137.333 43.9527C135.713 42.7883 133.068 41.2442 132.283 43.0667C132.283 43.0667 133.422 32.5621 131.144 33.5746C131.144 33.5746 130.005 33.1949 129.752 38.0042L128.36 45.598C128.36 45.598 126.335 39.3964 124.183 40.1558L125.322 46.7371C125.335 46.7371 125.208 50.9136 127.233 53.3183Z" fill="#FEB991"/>
<path d="M72.3685 85.4019C73.6266 85.4019 74.6466 84.3819 74.6466 83.1238C74.6466 81.8656 73.6266 80.8456 72.3685 80.8456C71.1103 80.8456 70.0903 81.8656 70.0903 83.1238C70.0903 84.3819 71.1103 85.4019 72.3685 85.4019Z" fill="white"/>
<g opacity="0.15">
<path d="M107.135 123.067L74.0138 125.522L72.8748 99.4631C76.9248 113.625 81.1013 121.725 107.135 123.067Z" fill="black"/>
</g>
<path d="M109.267 76.4978L108.637 76.5623L110.248 92.2878L110.878 92.2233L109.267 76.4978Z" fill="black"/>
<path d="M62.5674 87.8379L58.8413 90.5685L59.0657 90.8747L62.7919 88.1441L62.5674 87.8379Z" fill="black"/>
<path d="M62.3154 84.2955L58.5193 87.2071L58.7504 87.5084L62.5465 84.5968L62.3154 84.2955Z" fill="black"/>
<path d="M61.3724 81.0488L57.8362 84.7415L58.1104 85.0041L61.6466 81.3114L61.3724 81.0488Z" fill="black"/>
<path d="M55.5482 83.7313L55.1938 83.5921C56.5987 80.0357 58.4845 77.8715 58.4971 77.8588L58.7882 78.112C58.7629 78.1246 56.9278 80.2509 55.5482 83.7313Z" fill="black"/>
<path d="M59.4212 94.8436C58.8264 94.8436 58.3201 94.6664 57.9025 94.3121C56.89 93.4641 56.7507 91.9327 56.7507 91.8694L57.1304 91.8314C57.1304 91.8441 57.257 93.2742 58.1556 94.021C58.5732 94.3627 59.0921 94.5145 59.7123 94.4513L59.7503 94.831C59.6237 94.831 59.5225 94.8436 59.4212 94.8436Z" fill="black"/>
<path d="M167.467 94.7796L161.633 120.358C161.481 121.003 160.899 121.472 160.228 121.472H127.6C126.676 121.472 125.993 120.624 126.195 119.725L132.03 94.1468C132.182 93.5014 132.764 93.0331 133.435 93.0331H166.063C166.986 93.0331 167.67 93.8811 167.467 94.7796Z" fill="#96B1CC"/>
<path d="M130.562 118.763H104.933V121.472H130.562V118.763Z" fill="#96B1CC"/>
<path d="M169.404 94.6786L163.569 120.345C163.418 121.004 162.835 121.459 162.165 121.459H129.537C128.613 121.459 127.929 120.599 128.132 119.7L133.966 94.0331C134.118 93.375 134.701 92.9194 135.371 92.9194H167.999C168.936 92.9194 169.619 93.78 169.404 94.6786Z" fill="#BAD0F7"/>
<path d="M151.6 107.841C151.921 106.445 151.332 105.117 150.283 104.875C149.234 104.634 148.123 105.57 147.801 106.966C147.479 108.362 148.069 109.69 149.118 109.932C150.167 110.174 151.278 109.238 151.6 107.841Z" fill="white"/>
<g opacity="0.25">
<path d="M169.948 16.805H113.375V52.6222H169.948V16.805Z" fill="#BAD0F7"/>
</g>
<g opacity="0.35">
<path d="M131.65 48.4074C138.927 48.4074 144.825 42.5087 144.825 35.2323C144.825 27.9558 138.927 22.0571 131.65 22.0571C124.374 22.0571 118.475 27.9558 118.475 35.2323C118.475 42.5087 124.374 48.4074 131.65 48.4074Z" fill="#6F85EE"/>
</g>
<g opacity="0.35">
<path d="M131.65 41.1683C134.928 41.1683 137.586 38.5107 137.586 35.2325C137.586 31.9542 134.928 29.2967 131.65 29.2967C128.372 29.2967 125.714 31.9542 125.714 35.2325C125.714 38.5107 128.372 41.1683 131.65 41.1683Z" fill="#6F85EE"/>
</g>
<path d="M157.292 22.1204H150.078V23.386H157.292V22.1204Z" fill="#BAD0F7"/>
<path d="M162.86 25.158H150.078V26.4236H162.86V25.158Z" fill="#BAD0F7"/>
<path d="M162.86 28.1956H150.078V29.4612H162.86V28.1956Z" fill="#BAD0F7"/>
<path d="M162.86 31.2332H150.078V32.4988H162.86V31.2332Z" fill="#BAD0F7"/>
<path d="M66.5466 20.7281H9.97314V62.4938H66.5466V20.7281Z" fill="#F0EFFF"/>
<path d="M19.2121 24.2719H11.998V25.5375H19.2121V24.2719Z" fill="#BAD0F7"/>
<path d="M24.7809 27.3094H11.998V28.5751H24.7809V27.3094Z" fill="#BAD0F7"/>
<path d="M64.3316 59.8992H12.0613V60.1523H64.3316V59.8992Z" fill="white"/>
<path d="M64.3948 50.407H12.1245V50.9132H64.3948V50.407Z" fill="#96B1CC"/>
<path d="M64.3948 41.2945H12.1245V41.8007H64.3948V41.2945Z" fill="#96B1CC"/>
<path d="M64.3948 31.6758H12.1245V32.1821H64.3948V31.6758Z" fill="#96B1CC"/>
<path d="M63.1928 28.8915H56.9912V60.0259H63.1928V28.8915Z" fill="#BAD0F7"/>
<path d="M55.9784 33.954H49.7769V60.0259H55.9784V33.954Z" fill="#BAD0F7"/>
<path d="M48.7643 34.9664H42.5627V60.0257H48.7643V34.9664Z" fill="#BAD0F7"/>
<path d="M41.2975 40.9148H35.0959V60.0257H41.2975V40.9148Z" fill="#BAD0F7"/>
<path d="M34.0832 50.1541H27.8816V60.0259H34.0832V50.1541Z" fill="#BAD0F7"/>
<path d="M26.7428 47.9391H20.5413V60.0258H26.7428V47.9391Z" fill="#BAD0F7"/>
<path d="M19.402 55.1531H13.2004V60.0257H19.402V55.1531Z" fill="#BAD0F7"/>
<path d="M16.5417 58.0895L16.2 57.1402L23.5406 54.5584L30.8306 55.7987L38.0446 45.9142L45.3979 47.319L52.6373 38.1938L60.1298 35.7385L60.4462 36.7131L53.2448 39.0671L45.8156 48.4201L38.4876 47.0406L31.2735 56.8998L23.6292 55.6088L16.5417 58.0895Z" fill="#6F85EE"/>
<path d="M60.3827 36.8017C60.7882 36.8017 61.1168 36.4731 61.1168 36.0677C61.1168 35.6623 60.7882 35.3336 60.3827 35.3336C59.9773 35.3336 59.6487 35.6623 59.6487 36.0677C59.6487 36.4731 59.9773 36.8017 60.3827 36.8017Z" fill="#C92041"/>
<path d="M52.9159 39.4593C53.3214 39.4593 53.65 39.1306 53.65 38.7252C53.65 38.3198 53.3214 37.9911 52.9159 37.9911C52.5105 37.9911 52.1819 38.3198 52.1819 38.7252C52.1819 39.1306 52.5105 39.4593 52.9159 39.4593Z" fill="#C92041"/>
<path d="M45.5751 48.5718C45.9805 48.5718 46.3092 48.2431 46.3092 47.8377C46.3092 47.4323 45.9805 47.1036 45.5751 47.1036C45.1697 47.1036 44.8411 47.4323 44.8411 47.8377C44.8411 48.2431 45.1697 48.5718 45.5751 48.5718Z" fill="#C92041"/>
<path d="M38.2343 47.3062C38.6397 47.3062 38.9684 46.9775 38.9684 46.5721C38.9684 46.1667 38.6397 45.8381 38.2343 45.8381C37.8289 45.8381 37.5002 46.1667 37.5002 46.5721C37.5002 46.9775 37.8289 47.3062 38.2343 47.3062Z" fill="#C92041"/>
<path d="M31.0207 57.0517C31.4261 57.0517 31.7547 56.723 31.7547 56.3176C31.7547 55.9122 31.4261 55.5836 31.0207 55.5836C30.6153 55.5836 30.2866 55.9122 30.2866 56.3176C30.2866 56.723 30.6153 57.0517 31.0207 57.0517Z" fill="#C92041"/>
<path d="M23.6799 55.7861C24.0853 55.7861 24.4139 55.4575 24.4139 55.0521C24.4139 54.6466 24.0853 54.318 23.6799 54.318C23.2745 54.318 22.9458 54.6466 22.9458 55.0521C22.9458 55.4575 23.2745 55.7861 23.6799 55.7861Z" fill="#C92041"/>
<path d="M16.339 58.3172C16.7445 58.3172 17.0731 57.9886 17.0731 57.5832C17.0731 57.1778 16.7445 56.8491 16.339 56.8491C15.9336 56.8491 15.605 57.1778 15.605 57.5832C15.605 57.9886 15.9336 58.3172 16.339 58.3172Z" fill="#C92041"/>
<path d="M185.768 125.649H17.8201V142.735H185.768V125.649Z" fill="#D6E3F8"/>
<path d="M185.768 125.649H17.8201V132.61H185.768V125.649Z" fill="#96B1CC"/>
<path d="M192.615 121.51H10.9729V127.813H192.615V121.51Z" fill="#D6E3F8"/>
<path d="M38.766 90.2364C38.7407 90.7426 38.6015 91.3375 38.2977 92.0336C37.7155 93.3625 35.7285 97.2353 35.7285 97.2353L34.349 97.1087C34.349 97.1087 34.3237 96.9695 34.273 96.729C34.0705 95.6532 33.4757 92.5525 33.2605 91.3754C32.9441 89.6922 33.868 87.452 36.374 87.6925C37.2979 87.7811 38.8546 88.3759 38.766 90.2364Z" fill="#00CAB4"/>
<path d="M33.6151 96.4634L32.4127 97.0329L32.2608 96.8684L30.4257 94.932C30.2738 94.7674 30.1346 94.5776 30.0333 94.3751C29.7802 93.8815 29.4512 92.9829 29.9321 92.1603C30.1473 91.7932 30.489 91.5148 30.8813 91.3503C31.2863 91.1857 31.8938 91.0212 32.4507 91.2237C32.9823 91.4262 33.4632 91.9704 33.6151 93.2234C33.7163 94.0334 33.6151 96.4634 33.6151 96.4634Z" fill="#00CAB4"/>
<path d="M34.3282 89.4758L34.0508 89.4989L34.1139 90.2556L34.3913 90.2325L34.3282 89.4758Z" fill="white"/>
<path d="M36.2649 90.3821L36.1687 91.0204L36.444 91.0619L36.5403 90.4237L36.2649 90.3821Z" fill="white"/>
<path d="M34.5138 91.8311H34.2354V92.4639H34.5138V91.8311Z" fill="white"/>
<path d="M36.4672 92.6035L36.2751 93.1798L36.5393 93.2678L36.7313 92.6915L36.4672 92.6035Z" fill="white"/>
<path d="M34.8302 94.4382H34.5518V95.071H34.8302V94.4382Z" fill="white"/>
<path d="M36.0958 88.0341H35.8174V88.6669H36.0958V88.0341Z" fill="white"/>
<path d="M32.267 92.3101L31.9988 92.3847L32.1583 92.9578L32.4265 92.8831L32.267 92.3101Z" fill="white"/>
<path d="M30.9078 93.8785L30.6833 94.0432L31.0353 94.5228L31.2597 94.3581L30.9078 93.8785Z" fill="white"/>
<path d="M32.156 94.7002L31.9016 94.8133L32.1535 95.38L32.4079 95.2669L32.156 94.7002Z" fill="white"/>
<path d="M30.4986 92.0844L30.2625 92.232L30.5777 92.7364L30.8138 92.5889L30.4986 92.0844Z" fill="white"/>
<path d="M38.7659 90.2363C38.7406 90.7426 38.6014 91.3374 38.2976 92.0335C37.7155 93.3624 35.7284 97.2352 35.7284 97.2352L34.3489 97.1087C34.3489 97.1087 34.3236 96.9695 34.2729 96.729L34.6906 96.4632C37.5509 93.6535 38.5254 91.6032 38.7659 90.2363Z" fill="#00AA91"/>
<path d="M33.615 96.4634L32.4126 97.033L32.2607 96.8684C32.6404 96.2356 33.7415 92.907 32.4506 91.2238C32.9821 91.4263 33.4631 91.9705 33.615 93.2234C33.7162 94.0334 33.615 96.4634 33.615 96.4634Z" fill="#00AA91"/>
<path d="M38.247 99.83C38.247 102.032 36.4625 103.829 34.2477 103.829C32.9061 103.829 31.7291 103.171 30.995 102.159C30.5267 101.501 30.2483 100.703 30.2483 99.83C30.2483 97.6278 32.0328 95.8306 34.2477 95.8306C34.9691 95.8306 35.6399 96.0205 36.222 96.3495C37.437 97.0456 38.247 98.3366 38.247 99.83Z" fill="#00CAB4"/>
<path d="M31.7837 97.4372L31.5195 97.5253L31.7117 98.1016L31.9758 98.0135L31.7837 97.4372Z" fill="white"/>
<path d="M33.6299 98.0283L33.356 98.0781L33.4828 98.7754L33.7567 98.7256L33.6299 98.0283Z" fill="white"/>
<path d="M35.9056 97.8048H35.6272V98.4376H35.9056V97.8048Z" fill="white"/>
<path d="M38.2472 99.8298C38.2472 102.032 36.4626 103.829 34.2478 103.829C32.9062 103.829 31.7292 103.171 30.9951 102.159C37.3486 100.792 36.7411 97.615 36.2222 96.362C37.4372 97.0454 38.2472 98.3364 38.2472 99.8298Z" fill="#00AA91"/>
<path d="M39.7786 100.691L39.5508 101.931L38.2852 109.018C38.1839 109.575 37.703 109.98 37.1335 109.98H31.4761C30.9066 109.98 30.4257 109.575 30.3244 109.018L28.8563 100.691C28.793 100.349 29.0588 100.02 29.4132 100.02H39.2217C39.5761 100.02 39.8419 100.336 39.7786 100.691Z" fill="#ACC5EA"/>
<path d="M39.5508 101.931L38.2852 109.018C38.1839 109.575 37.703 109.98 37.1334 109.98H34.8047L39.5508 101.931Z" fill="#96B1CC"/>
<path d="M37.7339 89.4708L37.5459 90.0352L37.81 90.1232L37.9981 89.5588L37.7339 89.4708Z" fill="white"/>
<path d="M34.7413 96.362H34.4629V97.0201H34.7413V96.362Z" fill="white"/>
<path d="M39.3357 99.8677H29.6917V100.247H39.3357V99.8677Z" fill="black"/>
<path d="M49.7771 112.271V110.929H50.7263V109.816H27.8565C26.2112 109.816 24.8696 111.157 24.8696 112.802C24.8696 114.448 26.2112 115.789 27.8565 115.789H50.7263V114.663H49.7771V113.321V112.271Z" fill="#C92041"/>
<path d="M46.7647 118.068V116.726H47.7139V115.612H24.8441C23.1987 115.612 21.8572 116.954 21.8572 118.599C21.8572 120.244 23.1987 121.586 24.8441 121.586H47.7139V120.472H46.7647V119.131V118.068Z" fill="#00CAB4"/>
<path d="M46.9799 116.701V120.497H33.4377C32.3873 120.497 31.5393 119.649 31.5393 118.599C31.5393 118.295 31.6152 118.004 31.7418 117.751C32.0582 117.131 32.691 116.701 33.4377 116.701H46.9799Z" fill="white"/>
<g opacity="0.15">
<path d="M46.9801 116.701V118.561L31.7419 117.751C32.0583 117.131 32.6912 116.701 33.4379 116.701H46.9801Z" fill="black"/>
</g>
<path d="M50.0048 110.904V114.701H36.4626C35.4122 114.701 34.5642 113.853 34.5642 112.802C34.5642 112.499 34.6401 112.207 34.7667 111.954C35.0831 111.334 35.7159 110.904 36.4626 110.904H50.0048Z" fill="white"/>
<path d="M40.1458 110.891H41.9303V113.296H43.8287V118.89L42.9428 117.941L42.1581 118.89V113.752H40.1458V110.891Z" fill="black"/>
<g opacity="0.15">
<path d="M50.0047 110.904V112.764L34.7666 111.954C35.083 111.334 35.7158 110.904 36.4625 110.904H50.0047Z" fill="black"/>
</g>
<path d="M189.059 142.545H14.656V143.304H189.059V142.545Z" fill="black"/>
</svg>
