<svg width="21" height="21" viewBox="0 0 21 21" fill="none" xmlns="http://www.w3.org/2000/svg">
<path d="M6.31679 4.38117C6.31648 5.05773 5.90603 5.66655 5.27896 5.92055C4.6519 6.17455 3.93345 6.023 3.46239 5.53738C2.99133 5.05175 2.86174 4.32901 3.13471 3.70997C3.40769 3.09094 4.02872 2.69921 4.70497 2.7195C5.60316 2.74646 6.3172 3.48258 6.31679 4.38117ZM6.36664 7.27248H3.0433V17.6745H6.36664V7.27248ZM11.6175 7.27248H8.3108V17.6745H11.5843V12.2159C11.5843 9.17507 15.5474 8.89258 15.5474 12.2159V17.6745H18.8292V11.086C18.8292 5.95976 12.9635 6.15085 11.5843 8.66826L11.6175 7.27248Z" fill="#4AA5FF"/>
</svg>
