<svg width="225" height="160" viewBox="0 0 225 160" fill="none" xmlns="http://www.w3.org/2000/svg">
<path d="M94.5978 69.5719H91.0054V69.1044H94.5978V69.5719ZM87.4129 69.5719H83.8205V69.1044H87.4129V69.5719ZM80.2281 69.5719H76.6357V69.1044H80.2281V69.5719ZM73.0432 69.5719H69.4508V69.1044H73.0432V69.5719ZM65.8584 69.5719H62.266V69.1044H65.8584V69.5719ZM58.6736 69.5719H56.4244L56.2838 67.7957L56.7524 67.7645L56.8617 69.1044H58.6736V69.5719ZM56.0027 64.2277L55.7215 60.6597L56.1901 60.6286L56.4712 64.1965L56.0027 64.2277ZM55.4404 57.0762L55.1592 53.5082L55.6278 53.477L55.9089 57.045L55.4404 57.0762ZM54.8781 49.9402L54.5969 46.3722L55.0655 46.3411L55.3467 49.9091L54.8781 49.9402ZM54.3158 42.7887L54.0346 39.2207L54.5032 39.1896L54.7844 42.7575L54.3158 42.7887ZM53.7535 35.6372L53.4724 32.0692L53.9409 32.038L54.2221 35.606L53.7535 35.6372ZM67.6078 31.8667H64.0153V31.3992H67.6078V31.8667ZM60.4229 31.8667H56.8305V31.3992H60.4229V31.8667Z" fill="#6F85EE"/>
<path d="M156.575 66.1909H152.982V65.7235H156.575V66.1909ZM149.39 66.1909H145.798V65.7235H149.39V66.1909ZM157.934 64.1343L157.637 60.5663L158.106 60.5351L158.402 64.1031L157.934 64.1343ZM157.356 56.9983L157.059 53.4304L157.528 53.3992L157.824 56.9672L157.356 56.9983ZM156.778 49.8468L156.481 46.2788L156.95 46.2477L157.246 49.8156L156.778 49.8468ZM156.2 42.7109L155.903 39.1429L156.372 39.1117L156.669 42.6797L156.2 42.7109ZM154.435 37.32H150.843V36.8525H154.435V37.32Z" fill="#6F85EE"/>
<path d="M207.337 73.9034H199.309V95.9656H207.337V73.9034Z" fill="#556FCE"/>
<path d="M212.991 73.9189H206.837V95.9812H212.991V73.9189Z" fill="#6F85EE"/>
<path d="M212.101 75.5394H207.603V84.4671H212.101V75.5394Z" fill="white"/>
<path d="M211.383 76.3184H208.29V77.3779H211.383V76.3184Z" fill="#E5E5E5"/>
<path d="M209.586 93.6909C210.44 93.6909 211.133 93.0003 211.133 92.1484C211.133 91.2965 210.44 90.6059 209.586 90.6059C208.732 90.6059 208.04 91.2965 208.04 92.1484C208.04 93.0003 208.732 93.6909 209.586 93.6909Z" fill="white"/>
<path d="M199.465 73.9033H191.437V95.9655H199.465V73.9033Z" fill="#96B1CC"/>
<path d="M205.119 73.9189H198.965V95.9812H205.119V73.9189Z" fill="#BAD0F7"/>
<path d="M204.213 75.5393H199.715V84.467H204.213V75.5393Z" fill="white"/>
<path d="M203.511 76.3184H200.418V77.3778H203.511V76.3184Z" fill="#E5E5E5"/>
<path d="M201.714 93.6908C202.568 93.6908 203.261 93.0002 203.261 92.1483C203.261 91.2964 202.568 90.6058 201.714 90.6058C200.86 90.6058 200.168 91.2964 200.168 92.1483C200.168 93.0002 200.86 93.6908 201.714 93.6908Z" fill="white"/>
<path d="M116.621 48.725H68.6698L67.2953 20.5707L67.1078 16.6132H115.059L115.246 20.5707L116.621 48.725Z" fill="#D6E3F8"/>
<path d="M115.246 20.5707H67.2953L67.1078 16.6132H115.059L115.246 20.5707Z" fill="#96B1CC"/>
<path d="M71.3251 24.3568H79.5408L80.478 45.1103H72.2623L71.3251 24.3568Z" fill="#96B1CC"/>
<path d="M81.5557 24.3413L81.7119 25.915H100.252L100.096 24.3413H81.5557Z" fill="#96B1CC"/>
<path d="M82.1804 33.939L82.3366 35.5282H100.877L100.72 33.939H82.1804Z" fill="white"/>
<path d="M82.3366 37.3199L82.4928 38.9092H101.033L100.877 37.3199H82.3366Z" fill="white"/>
<path d="M82.4928 40.3738L82.649 45.1415H101.189L101.033 40.3738H82.4928Z" fill="white"/>
<path d="M81.7119 27.5042L81.8681 29.0934H92.1456L91.9894 27.5042H81.7119Z" fill="#96B1CC"/>
<path d="M102.595 24.3413L102.907 29.0934H111.076L110.764 24.3413H102.595Z" fill="#96B1CC"/>
<path d="M103.063 30.7917L103.22 32.4277H111.388L111.232 30.7917H103.063Z" fill="white"/>
<path d="M103.219 33.9701L103.376 35.6061H111.545L111.388 33.9701H103.219Z" fill="white"/>
<path d="M126.617 29.2959L127.429 43.4743H149.874L149.062 29.2959H126.617Z" fill="#D6E3F8"/>
<path d="M129.194 32.1939L129.272 33.1755H137.223L137.145 32.1939H129.194Z" fill="white"/>
<path d="M129.335 34.6245L129.397 35.6061H146.938L146.875 34.6245H129.335Z" fill="white"/>
<path d="M129.46 37.0395L129.522 38.0211H147.078L147 37.0395H129.46Z" fill="white"/>
<path d="M129.6 39.4701L129.663 40.4517H147.203L147.141 39.4701H129.6Z" fill="white"/>
<path d="M74.8863 97.804L55.9089 166.702H52.2697L71.247 97.804H74.8863Z" fill="#96B1CC"/>
<path d="M71.2469 97.804L90.2399 166.702H93.8792L74.8862 97.804H71.2469Z" fill="#96B1CC"/>
<path d="M186.486 97.804H152.654V166.702H186.486V97.804Z" fill="#96B1CC"/>
<path d="M86.8037 97.804L105.797 166.702H109.42L90.443 97.804H86.8037Z" fill="#96B1CC"/>
<path d="M88.2251 97.804L107.202 166.702H110.842L91.8488 97.804H88.2251Z" fill="#BAD0F7"/>
<path d="M90.443 97.804L71.45 166.702H67.8264L86.8037 97.804H90.443Z" fill="#96B1CC"/>
<path d="M91.8488 97.804L72.8714 166.702H69.2321L88.2251 97.804H91.8488Z" fill="#BAD0F7"/>
<path d="M79.5408 95.9812V99.6115H185.767V166.702H216.271V95.9812H79.5408Z" fill="#BAD0F7"/>
<path d="M84.1797 95.9812H60.5478V99.6115H84.1797V95.9812Z" fill="#96B1CC"/>
<path d="M187.985 101.216V164.676H214.647V101.216H187.985ZM213.851 163.882H188.813V152.103H196.888V154.222H206.556V152.103H213.866V163.882H213.851ZM213.851 151.292H188.813V138.797H196.888V140.916H206.556V138.797H213.866V151.292H213.851ZM213.851 137.987H188.813V126.566H196.888V128.607H206.556V126.566H213.866V137.987H213.851ZM213.851 125.771H188.813V114.413H196.888V116.532H206.556V114.413H213.866V125.771H213.851ZM213.851 113.618H188.813V102.026H196.888V104.036H206.556V102.026H213.866V113.618H213.851Z" fill="#96B1CC"/>
<path d="M115.606 83.4387L113.731 96.0591H122.947L124.821 83.4387H115.606Z" fill="#96B1CC"/>
<path d="M94.5976 55.5333L96.4876 83.2981C96.5657 84.4822 97.5497 85.4015 98.7367 85.4015H142.268C143.58 85.4015 144.61 84.2952 144.517 83.002L142.627 55.2373C142.549 54.0532 141.565 53.1339 140.378 53.1339H96.8468C95.5504 53.1339 94.5039 54.2401 94.5976 55.5333Z" fill="#96B1CC"/>
<path d="M117.324 83.4387L115.449 96.0591H124.665L126.539 83.4387H117.324Z" fill="#BAD0F7"/>
<path d="M144.158 85.4018H100.627C99.4397 85.4018 98.4557 84.4826 98.3776 83.2985L98.1433 79.9174L96.472 55.5337C96.3783 54.2249 97.4248 53.1187 98.7212 53.1187H142.252C143.439 53.1187 144.423 54.038 144.501 55.2221L146.188 79.9174L146.391 82.9868C146.5 84.2956 145.47 85.4018 144.158 85.4018Z" fill="#BAD0F7"/>
<path d="M100.471 79.7616L98.9711 57.528C98.893 56.4062 99.8302 55.4558 101.002 55.4558H140.362C141.44 55.4558 142.33 56.2504 142.393 57.2632L143.908 79.7461H100.471V79.7616Z" fill="white"/>
<path d="M111.935 94.1893H101.548V96.059H111.935V94.1893Z" fill="#96B1CC"/>
<path d="M139.113 94.1893H111.388V96.059H139.113V94.1893Z" fill="#BAD0F7"/>
<path d="M109.498 82.4415H103.032V86.6483C103.032 86.6483 103.032 88.2999 104.688 88.4557H111.31C111.31 88.4557 109.873 88.3778 109.577 86.7262L109.498 82.4415Z" fill="#6F85EE"/>
<path d="M117.464 80.7276H110.998V84.9344C110.998 84.9344 110.998 86.5859 112.654 86.7417H119.276C119.276 86.7417 117.839 86.6638 117.542 85.0123L117.464 80.7276Z" fill="#6F85EE"/>
<path d="M108.737 55.4329L107.646 55.5026L109.208 79.8065L110.299 79.7367L108.737 55.4329Z" fill="#E3EDFC"/>
<path d="M131.698 55.4329L130.607 55.5026L132.169 79.8065L133.26 79.7367L131.698 55.4329Z" fill="#E3EDFC"/>
<path d="M111.31 59.9897L111.779 66.8452H129.272L128.804 59.9897H111.31Z" fill="#D6E3F8"/>
<path d="M133.49 60.0833L133.677 62.9501H140.987L140.784 60.0833H133.49Z" fill="#D6E3F8"/>
<path d="M133.958 66.1597L134.146 69.0266H141.455L141.252 66.1597H133.958Z" fill="#D6E3F8"/>
<path d="M134.427 72.2361L134.614 75.103H141.924L141.721 72.2361H134.427Z" fill="#D6E3F8"/>
<path d="M111.935 69.9614L112.404 76.8169H129.897L129.429 69.9614H111.935Z" fill="#D6E3F8"/>
<path d="M117.714 57.4189H111.31V58.198H117.714V57.4189Z" fill="#E3EDFC"/>
<path d="M106.625 57.4968H100.221V58.2759H106.625V57.4968Z" fill="#E3EDFC"/>
<path d="M106.781 59.6782H100.377V60.4572H106.781V59.6782Z" fill="#E3EDFC"/>
<path d="M106.937 61.8594H100.533V62.6385H106.937V61.8594Z" fill="#E3EDFC"/>
<path d="M107.093 64.0408H100.689V64.8198H107.093V64.0408Z" fill="#E3EDFC"/>
<path d="M107.249 66.222H100.845V67.0011H107.249V66.222Z" fill="#E3EDFC"/>
<path d="M137.394 57.4968H133.333V58.2759H137.394V57.4968Z" fill="#E3EDFC"/>
<path d="M173.459 67.079L173.163 62.5762C173.163 62.5762 165.759 64.477 169.273 50.5323C169.273 50.5323 174.006 45.5777 179.894 50.5323V60.6598L180.894 65.8481L173.459 67.079Z" fill="#FEB991"/>
<path d="M183.721 50.5947C184.33 44.9233 181.191 45.5933 181.191 45.5933C178.036 41.0905 176.443 43.7703 176.443 43.7703C173.787 41.4021 172.96 43.6924 172.96 43.6924C170.351 42.6174 169.883 44.9233 169.883 44.9233C167.43 44.4559 167.571 46.7618 167.571 46.7618C166.649 46.9176 166.462 48.1174 166.493 48.6004C166.712 51.6853 168.914 51.919 170.132 51.81L170.414 55.5649C170.445 55.9233 170.788 56.157 171.132 56.0479C171.335 55.9856 171.476 55.8142 171.523 55.6116C171.538 55.5649 171.538 55.5182 171.538 55.487C171.804 54.1471 173.975 53.1187 174.287 55.487C174.287 55.487 174.521 58.5408 172.913 58.6031C172.913 58.6031 174.646 62.249 178.77 61.4856C179.457 61.3609 183.971 60.2235 183.612 52.3865C183.752 51.327 183.721 50.5947 183.721 50.5947Z" fill="#15173F"/>
<path d="M167.54 86.7885L159.949 92.8183C159.402 93.2545 158.73 93.5194 158.028 93.5661L139.035 94.9684L133.88 95.28C133.88 95.28 134.817 94.0336 136.067 93.7219H132.631L129.21 95.2021C128.804 95.3735 128.335 95.2177 128.132 94.8282C127.945 94.4698 128.039 94.018 128.367 93.7531L132.006 90.9953C132.599 90.5435 133.349 90.3254 134.099 90.4033L138.941 90.8551L140.721 91.4939L153.623 89.9203L163.854 76.9104L167.54 86.7885Z" fill="#E09B79"/>
<path d="M132.084 152.897L128.944 159.862L127.617 162.822H121.744L123.243 158.46L125.133 153.006L132.084 152.897Z" fill="#FEB991"/>
<path d="M155.2 152.897L153.029 159.924L152.139 162.822H146.266L147.063 158.787L148.25 152.851L155.2 152.897Z" fill="#FEB991"/>
<path d="M155.2 152.897L153.029 159.924L147.063 158.787L148.25 152.851L155.2 152.897Z" fill="#15173F"/>
<path d="M153.248 112.886L146.141 157.681L156.45 158.304L168.242 112.886H153.248Z" fill="#15173F"/>
<path d="M132.084 152.897L128.944 159.862L123.243 158.46L125.133 153.006L132.084 152.897Z" fill="#15173F"/>
<path d="M162.698 85.3863L160.495 87.4585L155.466 92.1794C154.982 92.6313 154.373 92.9117 153.701 92.9741L133.802 94.8905L131.928 95.6695C130.022 95.9967 128.085 95.5137 126.695 94.7035C126.227 94.6256 125.774 94.5633 125.336 94.501C124.602 96.0434 122.556 96.6199 122.556 96.6199L123.431 93.4571C123.556 93.0208 123.837 92.6624 124.228 92.4443L127.305 90.6993C128.07 90.263 128.991 90.2474 129.772 90.6214L130.897 91.1667L150.671 86.9443L158.324 79.3098L162.698 85.3863Z" fill="#FEB991"/>
<path d="M162.698 85.3863L160.495 87.4429L156.278 81.3353L158.324 79.3098L162.698 85.3863Z" fill="#15173F"/>
<path d="M166.649 101.045L164.931 103.226L148.453 105.205C144.267 105.703 140.721 108.508 139.269 112.45L122.869 156.746L133.958 158.46L151.327 121.113C151.327 121.113 193.546 127.953 188.86 106.015L166.649 101.045Z" fill="#2E2E75"/>
<path d="M169.414 66.892C169.336 66.9076 168.008 67.4529 166.134 69.3226C165.462 69.9926 156.919 80.3849 156.919 80.3849L162.698 86.4613L164.103 85.2149L163.729 97.3366L161.917 103.288C161.917 103.288 164.853 105.532 167.383 106.716C177.38 111.39 190.812 109.521 190.812 109.521L189.188 78.3126C189.188 78.3126 189.391 71.0676 185.955 67.2192C185.439 66.6427 184.736 66.2532 183.971 66.113C181.816 65.7079 176.708 64.8042 169.414 66.892Z" fill="#DEE3FC"/>
<path d="M168.147 80.5435L162.523 86.6236L162.867 86.9406L168.492 80.8605L168.147 80.5435Z" fill="#15173F"/>
<path d="M173.6 124.213H170.96V152.897H173.6V124.213Z" fill="#7694AD"/>
<path d="M162.573 123.917H181.878C181.878 125.693 180.441 127.127 178.66 127.127H165.79C164.01 127.127 162.573 125.693 162.573 123.917Z" fill="#BAD0F7"/>
<path d="M172.397 150.093C173.99 150.093 175.271 151.37 175.271 152.96V158.117H169.523V152.96C169.523 151.37 170.819 150.093 172.397 150.093Z" fill="#BAD0F7"/>
<path d="M181.128 164.427C180.691 164.427 180.332 164.069 180.332 163.632V162.775C180.332 160.656 178.614 158.943 176.489 158.943H159.136C157.012 158.943 155.294 160.656 155.294 162.775V163.632C155.294 164.069 154.935 164.427 154.498 164.427C154.06 164.427 153.701 164.069 153.701 163.632V162.775C153.701 159.768 156.138 157.338 159.152 157.338H176.505C179.52 157.338 181.956 159.768 181.956 162.775V163.632C181.94 164.053 181.581 164.427 181.128 164.427Z" fill="#7694AD"/>
<path d="M190.437 164.427C190 164.427 189.641 164.069 189.641 163.632V162.775C189.641 160.656 187.923 158.943 185.798 158.943H168.446C166.321 158.943 164.603 160.656 164.603 162.775V163.632C164.603 164.069 164.244 164.427 163.807 164.427C163.369 164.427 163.01 164.069 163.01 163.632V162.775C163.01 159.768 165.447 157.338 168.461 157.338H185.814C188.829 157.338 191.265 159.768 191.265 162.775V163.632C191.234 164.053 190.875 164.427 190.437 164.427Z" fill="#BAD0F7"/>
<path d="M196.279 119.43H149.499V124.26H196.279V119.43Z" fill="#7694AD"/>
<path d="M194.779 75.5704H173.865C172.022 75.5704 170.46 76.9259 170.21 78.7488L166.79 103.693H154.029L152.311 106.965H166.352L164.572 119.897H192.936L198.434 79.746C198.747 77.5335 197.013 75.5704 194.779 75.5704Z" fill="#7694AD"/>
<path d="M167.227 119.897L172.866 78.7488C173.116 76.9259 174.678 75.5704 176.521 75.5704H197.435C199.668 75.5704 201.386 77.5335 201.09 79.746L195.592 119.897H167.227Z" fill="#96B1CC"/>
<path d="M91.9234 64.7179C92.2349 63.7784 91.7239 62.7649 90.7821 62.4542C89.8403 62.1434 88.8242 62.6532 88.5127 63.5926C88.2012 64.5321 88.7122 65.5457 89.6541 65.8564C90.5959 66.1671 91.6119 65.6574 91.9234 64.7179Z" fill="#BAD0F7"/>
<path d="M67.5297 73.467L73.0745 94.9527L69.1228 94.9371L63.8904 74.3862L67.5297 73.467ZM69.7945 92.5221C69.8725 92.8493 70.2162 93.0519 70.5598 92.974C70.9034 92.8961 71.0908 92.5533 71.0127 92.2105L67.0142 76.5052C66.9361 76.178 66.5925 75.9755 66.2489 76.0534C65.9209 76.1313 65.7178 76.474 65.7959 76.8168L69.7945 92.5221Z" fill="#BAD0F7"/>
<path d="M85.0388 61.6257L67.8733 73.9967L65.671 70.9741L82.8365 58.603L85.0388 61.6257ZM68.6699 70.4288C68.3887 70.6313 68.3262 71.0208 68.5293 71.3013C68.7323 71.5817 69.1228 71.644 69.404 71.4415L82.5397 61.9061C82.8209 61.7036 82.8834 61.3141 82.6803 61.0336C82.4773 60.7532 82.0868 60.6908 81.8056 60.8934L68.6699 70.4288Z" fill="#BAD0F7"/>
<path d="M65.8584 75.5704C67.3076 75.5704 68.4824 74.3984 68.4824 72.9528C68.4824 71.5072 67.3076 70.3353 65.8584 70.3353C64.4092 70.3353 63.2344 71.5072 63.2344 72.9528C63.2344 74.3984 64.4092 75.5704 65.8584 75.5704Z" fill="#96B1CC"/>
<path d="M91.8019 59.8028L88.8499 68.6993L80.1187 64.477C78.5568 63.7291 77.8071 61.9373 78.3537 60.3014C78.9004 58.6654 80.5717 57.6838 82.2742 57.9954L91.8019 59.8028Z" fill="#96B1CC"/>
<path d="M65.9052 74.0123C66.5522 74.0123 67.0766 73.4892 67.0766 72.8438C67.0766 72.1984 66.5522 71.6752 65.9052 71.6752C65.2582 71.6752 64.7338 72.1984 64.7338 72.8438C64.7338 73.4892 65.2582 74.0123 65.9052 74.0123Z" fill="#BAD0F7"/>
<path d="M76.4482 94.7346H65.5148V96.1368H76.4482V94.7346Z" fill="#96B1CC"/>
<path d="M54.6125 101.699C53.8941 108.29 52.3321 116.33 49.3957 126.021L47.1622 125.74C47.1622 125.74 47.2403 122.64 47.4589 117.981C48.0056 105.657 49.427 82.4105 52.4727 76.9417C52.4727 76.9572 56.5493 84.1088 54.6125 101.699Z" fill="#ACC5EA"/>
<path d="M48.5211 128.95H48.0525C48.3336 99.2998 52.2072 76.9883 52.2541 76.7702L52.7226 76.8481C52.6602 77.0662 48.7866 99.3466 48.5211 128.95Z" fill="#15173F"/>
<path d="M54.6125 101.699C53.8941 108.29 52.3321 116.33 49.3957 126.021L47.1622 125.74C47.1622 125.74 47.2403 122.64 47.4589 117.981C49.7862 111.126 52.6601 105.298 54.6125 101.699Z" fill="#15173F"/>
<path d="M47.5839 125.039C47.5839 125.039 55.4092 103.709 60.298 98.4118C60.298 98.4118 63.5155 111.515 49.2552 125.74L47.5839 125.039Z" fill="#ACC5EA"/>
<path d="M34.5887 84.7631C34.5887 84.7631 46.5999 102.182 47.7245 125.756H47.3028C47.3028 125.74 32.074 100.375 34.5887 84.7631Z" fill="#ACC5EA"/>
<path d="M47.0684 125.771C43.476 102.245 34.4637 85.0279 34.37 84.8566L34.7917 84.6384C34.8854 84.8098 43.929 102.089 47.537 125.693L47.0684 125.771Z" fill="#15173F"/>
<path d="M47.4589 128.264L47.0215 128.109C53.238 110.456 60.0324 98.4274 60.1105 98.3027L60.5166 98.5364C60.4385 98.6455 53.6597 110.643 47.4589 128.264Z" fill="#15173F"/>
<path d="M56.1119 124.213L55.1904 135.447L52.6132 166.873H42.695L39.1963 124.213H56.1119Z" fill="#ACC5EA"/>
<path d="M55.1905 135.447L52.6133 166.873H45.7096L55.1905 135.447Z" fill="#96B1CC"/>
<path d="M59.3607 135.4C58.8453 135.4 58.4236 135.821 58.4236 136.335V136.538V137.192V141.804H59.5638V137.659C59.5638 137.394 59.7668 137.192 60.0324 137.192H71.5125C71.778 137.192 71.9811 137.394 71.9811 137.659V141.804H73.1213V137.192V136.538V136.335C73.1213 135.821 72.6996 135.4 72.1841 135.4H59.3607Z" fill="#405DAD"/>
<path d="M82.8365 142.801V165.19C82.8365 166.047 82.1336 166.748 81.2745 166.748H49.302C48.4429 166.748 47.7401 166.047 47.7401 165.19V142.801C47.7401 141.944 48.4429 141.243 49.302 141.243H81.2745C82.1336 141.227 82.8365 141.928 82.8365 142.801Z" fill="#6F85EE"/>
<path d="M79.2909 150.171L63.2031 155.92L47.7401 150.404V149.018L63.2031 154.549L78.8536 148.955L79.2909 150.171Z" fill="#405DAD"/>
<path d="M82.8364 142.801V165.19C82.8364 166.047 82.1335 166.748 81.2745 166.748H80.228C79.3689 166.748 78.6661 166.047 78.6661 165.19V142.801C78.6661 141.944 79.3689 141.243 80.228 141.243H81.2745C82.1335 141.227 82.8364 141.928 82.8364 142.801Z" fill="#405DAD"/>
<path d="M87.8347 70.46C87.819 70.8651 87.6941 71.3481 87.4598 71.909C86.9912 72.9685 85.3824 76.0846 85.3824 76.0846L84.2735 75.9912C84.2735 75.9912 84.2579 75.8821 84.211 75.6951C84.0392 74.8226 83.5706 72.3297 83.3988 71.3949C83.1489 70.0393 83.8986 68.2476 85.8979 68.4345C86.6632 68.4813 87.9128 68.9643 87.8347 70.46Z" fill="#ACC5EA"/>
<path d="M83.6956 75.4614L82.7272 75.9133L82.6022 75.7886L81.134 74.2305C81.009 74.0903 80.8997 73.9501 80.8216 73.7787C80.6186 73.3892 80.353 72.6569 80.7435 72.0025C80.9153 71.7065 81.1965 71.4884 81.5089 71.3637C81.8369 71.2235 82.3211 71.0988 82.774 71.2546C83.2114 71.4104 83.5862 71.8623 83.7112 72.8594C83.7736 73.5138 83.6956 75.4614 83.6956 75.4614Z" fill="#ACC5EA"/>
<path d="M84.275 69.8396L84.0415 69.859L84.0922 70.4645L84.3257 70.4451L84.275 69.8396Z" fill="white"/>
<path d="M85.8346 70.5792L85.7578 71.0876L85.9894 71.1224L86.0663 70.614L85.8346 70.5792Z" fill="white"/>
<path d="M84.4297 71.7376H84.1954V72.2518H84.4297V71.7376Z" fill="white"/>
<path d="M85.9778 72.3678L85.8248 72.826L86.047 72.8999L86.2001 72.4417L85.9778 72.3678Z" fill="white"/>
<path d="M84.6796 73.8254H84.4453V74.3395H84.6796V73.8254Z" fill="white"/>
<path d="M85.6948 68.6838H85.4605V69.198H85.6948V68.6838Z" fill="white"/>
<path d="M82.6136 72.1181L82.3879 72.1807L82.5177 72.646L82.7434 72.5834L82.6136 72.1181Z" fill="white"/>
<path d="M81.5152 73.3769L81.3264 73.5151L81.6036 73.892L81.7924 73.7537L81.5152 73.3769Z" fill="white"/>
<path d="M82.5151 74.0372L82.301 74.1321L82.5039 74.5877L82.718 74.4928L82.5151 74.0372Z" fill="white"/>
<path d="M81.1882 71.9309L80.9896 72.0548L81.2462 72.4644L81.4449 72.3405L81.1882 71.9309Z" fill="white"/>
<path d="M87.8347 70.46C87.819 70.8651 87.6941 71.3481 87.4598 71.909C86.9912 72.9685 85.3824 76.0846 85.3824 76.0846L84.2735 75.9911C84.2735 75.9911 84.2579 75.882 84.211 75.6951L84.5546 75.4769C86.8507 73.2022 87.6472 71.5506 87.8347 70.46Z" fill="#96B1CC"/>
<path d="M83.6956 75.4614L82.7272 75.9133L82.6022 75.7886C82.899 75.2744 83.8049 72.6102 82.7584 71.2546C83.1958 71.4104 83.5706 71.8623 83.6956 72.8594C83.7737 73.5138 83.6956 75.4614 83.6956 75.4614Z" fill="#96B1CC"/>
<path d="M87.4285 78.1569C87.4285 79.9331 85.9916 81.3665 84.211 81.3665C83.1332 81.3665 82.1805 80.8368 81.6026 80.0266C81.2277 79.4968 80.9934 78.858 80.9934 78.1569C80.9934 76.3807 82.4304 74.9473 84.211 74.9473C84.7889 74.9473 85.3356 75.1031 85.8041 75.3679C86.7725 75.9288 87.4285 76.9727 87.4285 78.1569Z" fill="#ACC5EA"/>
<path d="M82.2309 76.2437L82.0086 76.3176L82.1618 76.7758L82.384 76.7019L82.2309 76.2437Z" fill="white"/>
<path d="M83.7089 76.7065L83.4784 76.7482L83.5819 77.3154L83.8124 77.2737L83.7089 76.7065Z" fill="white"/>
<path d="M85.5542 76.5364H85.3199V77.0506H85.5542V76.5364Z" fill="white"/>
<path d="M87.4285 78.1569C87.4285 79.9331 85.9915 81.3665 84.211 81.3665C83.1332 81.3665 82.1805 80.8367 81.6025 80.0265C86.7256 78.9359 86.2258 76.3807 85.8197 75.3679C86.7725 75.9288 87.4285 76.9727 87.4285 78.1569Z" fill="#96B1CC"/>
<path d="M88.6469 78.858L88.4751 79.8551L87.4598 85.5421C87.3817 85.9939 86.9913 86.3211 86.5383 86.3211H81.9775C81.5245 86.3211 81.134 85.9939 81.056 85.5421L79.8533 78.858C79.8064 78.5775 80.0251 78.3282 80.3062 78.3282H88.2096C88.4907 78.3127 88.7094 78.5775 88.6469 78.858Z" fill="#ACC5EA"/>
<path d="M88.475 79.8551L87.4598 85.542C87.3817 85.9939 86.9912 86.3211 86.5382 86.3211H84.6639L88.475 79.8551Z" fill="#96B1CC"/>
<path d="M87.0123 69.8335L86.8593 70.2917L87.0815 70.3656L87.2346 69.9073L87.0123 69.8335Z" fill="white"/>
<path d="M84.617 75.3835H84.3828V75.9132H84.617V75.3835Z" fill="white"/>
<path d="M88.3032 78.1101H80.5405V78.5775H88.3032V78.1101Z" fill="#15173F"/>
<path d="M97.7372 88.2374V87.1H98.5494V86.1496H79.1504C77.7446 86.1496 76.6201 87.287 76.6201 88.6737C76.6201 90.0759 77.7603 91.1977 79.1504 91.1977H98.5494V90.2473H97.7372V89.1099V88.2374Z" fill="#BAD0F7"/>
<path d="M95.1757 93.161V92.0236H95.9879V91.0732H76.5888C75.1831 91.0732 74.0585 92.2106 74.0585 93.5972C74.0585 94.9995 75.1987 96.1213 76.5888 96.1213H95.9879V95.1709H95.1757V94.0335V93.161Z" fill="#96B1CC"/>
<path d="M95.3788 91.9924V95.202H83.883C82.9927 95.202 82.2742 94.4853 82.2742 93.5972C82.2742 93.3323 82.3367 93.0986 82.446 92.8805C82.7116 92.3507 83.2582 91.9924 83.883 91.9924H95.3788Z" fill="white"/>
<g opacity="0.15">
<path d="M95.3787 91.9924V93.566L82.446 92.8805C82.7115 92.3507 83.2582 91.9924 83.883 91.9924H95.3787Z" fill="black"/>
</g>
<path d="M97.9247 87.0845V90.2941H86.429C85.5387 90.2941 84.8202 89.5774 84.8202 88.6893C84.8202 88.4244 84.8827 88.1907 84.992 87.9726C85.2575 87.4428 85.8042 87.0845 86.429 87.0845H97.9247Z" fill="white"/>
<path d="M89.5684 87.0845H91.0834V89.11H92.6922V93.8465L91.9425 93.0363L91.2709 93.8465V89.4839H89.5684V87.0845Z" fill="#15173F"/>
<g opacity="0.15">
<path d="M97.9246 87.0845V88.6581L84.9919 87.9726C85.2574 87.4428 85.8041 87.0845 86.4289 87.0845H97.9246Z" fill="black"/>
</g>
</svg>
