<svg width="217" height="120" viewBox="0 0 217 120" fill="none" xmlns="http://www.w3.org/2000/svg">
<path d="M86.5981 53.5933H83.0057V53.1259H86.5981V53.5933ZM79.4132 53.5933H75.8208V53.1259H79.4132V53.5933ZM72.2284 53.5933H68.636V53.1259H72.2284V53.5933ZM65.0435 53.5933H61.4511V53.1259H65.0435V53.5933ZM57.8587 53.5933H54.2663V53.1259H57.8587V53.5933ZM50.6739 53.5933H48.4247L48.2841 51.8171L48.7527 51.786L48.862 53.1259H50.6739V53.5933ZM48.003 48.2492L47.7218 44.6812L48.1904 44.65L48.4715 48.218L48.003 48.2492ZM47.4407 41.0976L47.1595 37.5297L47.6281 37.4985L47.9093 41.0665L47.4407 41.0976ZM46.8784 33.9617L46.5972 30.3937L47.0658 30.3626L47.347 33.9305L46.8784 33.9617ZM46.3161 26.8102L46.0349 23.2422L46.5035 23.211L46.7847 26.779L46.3161 26.8102ZM45.7538 19.6587L45.4727 16.0907L45.9412 16.0595L46.2224 19.6275L45.7538 19.6587ZM59.6081 15.8881H56.0156V15.4207H59.6081V15.8881ZM52.4232 15.8881H48.8308V15.4207H52.4232V15.8881Z" fill="#6F85EE"/>
<path d="M148.575 50.2124H144.983V49.745H148.575V50.2124ZM141.39 50.2124H137.798V49.745H141.39V50.2124ZM149.934 48.1558L149.637 44.5878L150.106 44.5566L150.403 48.1246L149.934 48.1558ZM149.356 41.0198L149.059 37.4518L149.528 37.4207L149.825 40.9887L149.356 41.0198ZM148.778 33.8683L148.481 30.3003L148.95 30.2692L149.247 33.8371L148.778 33.8683ZM148.2 26.7323L147.903 23.1644L148.372 23.1332L148.669 26.7012L148.2 26.7323ZM146.435 21.3414H142.843V20.874H146.435V21.3414Z" fill="#6F85EE"/>
<path d="M199.338 57.9249H191.309V79.9871H199.338V57.9249Z" fill="#556FCE"/>
<path d="M204.992 57.9404H198.838V80.0026H204.992V57.9404Z" fill="#6F85EE"/>
<path d="M204.101 59.5609H199.603V68.4886H204.101V59.5609Z" fill="white"/>
<path d="M203.383 60.3399H200.29V61.3994H203.383V60.3399Z" fill="#E5E5E5"/>
<path d="M201.587 77.7123C202.441 77.7123 203.133 77.0218 203.133 76.1699C203.133 75.318 202.441 74.6274 201.587 74.6274C200.733 74.6274 200.041 75.318 200.041 76.1699C200.041 77.0218 200.733 77.7123 201.587 77.7123Z" fill="white"/>
<path d="M191.466 57.9248H183.437V79.987H191.466V57.9248Z" fill="#96B1CC"/>
<path d="M197.12 57.9404H190.966V80.0026H197.12V57.9404Z" fill="#BAD0F7"/>
<path d="M196.214 59.5608H191.715V68.4885H196.214V59.5608Z" fill="white"/>
<path d="M195.511 60.3398H192.418V61.3993H195.511V60.3398Z" fill="#E5E5E5"/>
<path d="M193.715 77.7123C194.569 77.7123 195.261 77.0217 195.261 76.1698C195.261 75.3179 194.569 74.6273 193.715 74.6273C192.861 74.6273 192.168 75.3179 192.168 76.1698C192.168 77.0217 192.861 77.7123 193.715 77.7123Z" fill="white"/>
<path d="M108.621 32.7464H60.6701L59.2956 4.59219L59.1082 0.634705H107.059L107.247 4.59219L108.621 32.7464Z" fill="#D6E3F8"/>
<path d="M107.247 4.59219H59.2956L59.1082 0.634705H107.059L107.247 4.59219Z" fill="#96B1CC"/>
<path d="M63.3254 8.3783H71.5412L72.4783 29.1317H64.2626L63.3254 8.3783Z" fill="#96B1CC"/>
<path d="M73.5559 8.36279L73.7121 9.93644H92.2521L92.0959 8.36279H73.5559Z" fill="#96B1CC"/>
<path d="M74.1807 17.9604L74.3369 19.5497H92.8769L92.7207 17.9604H74.1807Z" fill="white"/>
<path d="M74.3369 21.3414L74.4931 22.9307H93.0331L92.8769 21.3414H74.3369Z" fill="white"/>
<path d="M74.4932 24.3953L74.6494 29.1629H93.1894L93.0332 24.3953H74.4932Z" fill="white"/>
<path d="M73.7122 11.5256L73.8684 13.1149H84.1458L83.9896 11.5256H73.7122Z" fill="#96B1CC"/>
<path d="M94.5952 8.36279L94.9076 13.1149H103.076L102.764 8.36279H94.5952Z" fill="#96B1CC"/>
<path d="M95.0637 14.8132L95.2199 16.4491H103.389L103.233 14.8132H95.0637Z" fill="white"/>
<path d="M95.2197 17.9916L95.3759 19.6275H103.545L103.389 17.9916H95.2197Z" fill="white"/>
<path d="M118.617 13.3174L119.43 27.4958H141.874L141.062 13.3174H118.617Z" fill="#D6E3F8"/>
<path d="M121.195 16.2154L121.273 17.197H129.223L129.145 16.2154H121.195Z" fill="white"/>
<path d="M121.335 18.646L121.398 19.6276H138.938L138.876 18.646H121.335Z" fill="white"/>
<path d="M121.46 21.061L121.523 22.0426H139.079L139.001 21.061H121.46Z" fill="white"/>
<path d="M121.601 23.4916L121.663 24.4732H139.204L139.141 23.4916H121.601Z" fill="white"/>
<path d="M66.8867 81.8255L47.9093 150.723H44.27L63.2474 81.8255H66.8867Z" fill="#96B1CC"/>
<path d="M63.2473 81.8255L82.2403 150.723H85.8796L66.8866 81.8255H63.2473Z" fill="#96B1CC"/>
<path d="M178.486 81.8255H144.655V150.723H178.486V81.8255Z" fill="#96B1CC"/>
<path d="M78.8042 81.8255L97.7972 150.723H101.421L82.4435 81.8255H78.8042Z" fill="#96B1CC"/>
<path d="M80.2256 81.8255L99.2029 150.723H102.842L83.8492 81.8255H80.2256Z" fill="#BAD0F7"/>
<path d="M82.4433 81.8255L63.4503 150.723H59.8267L78.804 81.8255H82.4433Z" fill="#96B1CC"/>
<path d="M83.8491 81.8255L64.8717 150.723H61.2324L80.2254 81.8255H83.8491Z" fill="#BAD0F7"/>
<path d="M71.5413 80.0027V83.633H177.768V150.723H208.272V80.0027H71.5413Z" fill="#BAD0F7"/>
<path d="M76.18 80.0027H52.5481V83.633H76.18V80.0027Z" fill="#96B1CC"/>
<path d="M179.985 85.2377V148.698H206.647V85.2377H179.985ZM205.851 147.903H180.813V136.124H188.888V138.243H198.557V136.124H205.866V147.903H205.851ZM205.851 135.314H180.813V122.818H188.888V124.937H198.557V122.818H205.866V135.314H205.851ZM205.851 122.008H180.813V110.587H188.888V112.628H198.557V110.587H205.866V122.008H205.851ZM205.851 109.793H180.813V98.4345H188.888V100.553H198.557V98.4345H205.866V109.793H205.851ZM205.851 97.6399H180.813V86.0479H188.888V88.0578H198.557V86.0479H205.866V97.6399H205.851Z" fill="#96B1CC"/>
<path d="M107.606 67.4602L105.731 80.0805H114.947L116.821 67.4602H107.606Z" fill="#96B1CC"/>
<path d="M86.5979 39.5548L88.4878 67.3196C88.5659 68.5037 89.5499 69.4229 90.737 69.4229H134.268C135.58 69.4229 136.611 68.3167 136.517 67.0235L134.627 39.2588C134.549 38.0747 133.565 37.1554 132.378 37.1554H88.8471C87.5507 37.1554 86.5042 38.2616 86.5979 39.5548Z" fill="#96B1CC"/>
<path d="M109.324 67.4602L107.449 80.0805H116.665L118.539 67.4602H109.324Z" fill="#BAD0F7"/>
<path d="M136.158 69.4233H92.6269C91.4398 69.4233 90.4558 68.5041 90.3777 67.3199L90.1434 63.9389L88.4721 39.5552C88.3784 38.2464 89.4249 37.1402 90.7213 37.1402H134.252C135.439 37.1402 136.423 38.0595 136.501 39.2436L138.188 63.9389L138.391 67.0083C138.501 68.3171 137.47 69.4233 136.158 69.4233Z" fill="#BAD0F7"/>
<path d="M92.4708 63.7831L90.9713 41.5495C90.8933 40.4277 91.8304 39.4773 93.0018 39.4773H132.362C133.44 39.4773 134.33 40.2719 134.393 41.2847L135.908 63.7675H92.4708V63.7831Z" fill="white"/>
<path d="M103.935 78.2108H93.5483V80.0805H103.935V78.2108Z" fill="#96B1CC"/>
<path d="M131.113 78.2108H103.388V80.0805H131.113V78.2108Z" fill="#BAD0F7"/>
<path d="M101.499 66.463H95.0322V70.6698C95.0322 70.6698 95.0322 72.3213 96.6879 72.4772H103.31C103.31 72.4772 101.873 72.3992 101.577 70.7477L101.499 66.463Z" fill="#6F85EE"/>
<path d="M109.464 64.7491H102.998V68.9559C102.998 68.9559 102.998 70.6074 104.654 70.7632H111.276C111.276 70.7632 109.839 70.6853 109.543 69.0338L109.464 64.7491Z" fill="#6F85EE"/>
<path d="M100.737 39.4543L99.6462 39.5241L101.208 63.828L102.299 63.7582L100.737 39.4543Z" fill="#E3EDFC"/>
<path d="M123.699 39.4543L122.607 39.5241L124.169 63.828L125.26 63.7582L123.699 39.4543Z" fill="#E3EDFC"/>
<path d="M103.311 44.0112L103.779 50.8667H121.273L120.804 44.0112H103.311Z" fill="#D6E3F8"/>
<path d="M125.49 44.1047L125.677 46.9716H132.987L132.784 44.1047H125.49Z" fill="#D6E3F8"/>
<path d="M125.958 50.1812L126.146 53.0481H133.455L133.252 50.1812H125.958Z" fill="#D6E3F8"/>
<path d="M126.427 56.2576L126.614 59.1245H133.924L133.721 56.2576H126.427Z" fill="#D6E3F8"/>
<path d="M103.935 53.9828L104.404 60.8383H121.897L121.429 53.9828H103.935Z" fill="#D6E3F8"/>
<path d="M109.714 41.4404H103.311V42.2195H109.714V41.4404Z" fill="#E3EDFC"/>
<path d="M98.6246 41.5183H92.2207V42.2973H98.6246V41.5183Z" fill="#E3EDFC"/>
<path d="M98.7808 43.6996H92.377V44.4787H98.7808V43.6996Z" fill="#E3EDFC"/>
<path d="M98.9371 45.8809H92.5332V46.66H98.9371V45.8809Z" fill="#E3EDFC"/>
<path d="M99.0931 48.0623H92.6892V48.8413H99.0931V48.0623Z" fill="#E3EDFC"/>
<path d="M99.2493 50.2435H92.8455V51.0226H99.2493V50.2435Z" fill="#E3EDFC"/>
<path d="M129.394 41.5183H125.333V42.2973H129.394V41.5183Z" fill="#E3EDFC"/>
<path d="M165.46 51.1005L165.163 46.5977C165.163 46.5977 157.759 48.4985 161.274 34.5538C161.274 34.5538 166.006 29.5992 171.895 34.5538V44.6812L172.894 49.8696L165.46 51.1005Z" fill="#FEB991"/>
<path d="M175.721 34.6162C176.331 28.9448 173.191 29.6148 173.191 29.6148C170.036 25.112 168.443 27.7918 168.443 27.7918C165.788 25.4236 164.96 27.7139 164.96 27.7139C162.351 26.6389 161.883 28.9448 161.883 28.9448C159.431 28.4774 159.571 30.7833 159.571 30.7833C158.65 30.9391 158.462 32.1388 158.493 32.6218C158.712 35.7068 160.914 35.9405 162.133 35.8315L162.414 39.5864C162.445 39.9447 162.789 40.1785 163.132 40.0694C163.335 40.0071 163.476 39.8357 163.523 39.6331C163.538 39.5864 163.538 39.5396 163.538 39.5085C163.804 38.1685 165.975 37.1402 166.287 39.5085C166.287 39.5085 166.522 42.5623 164.913 42.6246C164.913 42.6246 166.647 46.2705 170.77 45.507C171.457 45.3824 175.971 44.245 175.612 36.4079C175.753 35.3485 175.721 34.6162 175.721 34.6162Z" fill="#15173F"/>
<path d="M159.54 70.81L151.949 76.8397C151.402 77.276 150.731 77.5409 150.028 77.5876L131.035 78.9899L125.881 79.3015C125.881 79.3015 126.818 78.055 128.067 77.7434H124.631L121.21 79.2236C120.804 79.395 120.336 79.2392 120.133 78.8496C119.945 78.4913 120.039 78.0395 120.367 77.7746L124.006 75.0168C124.6 74.565 125.349 74.3468 126.099 74.4247L130.941 74.8766L132.722 75.5154L145.623 73.9417L155.854 60.9319L159.54 70.81Z" fill="#E09B79"/>
<path d="M145.248 96.9077L138.142 141.702L148.45 142.325L160.243 96.9077H145.248Z" fill="#15173F"/>
<path d="M154.698 69.4078L152.495 71.48L147.466 76.2009C146.982 76.6528 146.373 76.9332 145.701 76.9955L125.802 78.912L123.928 79.691C122.022 80.0182 120.086 79.5352 118.695 78.725C118.227 78.6471 117.774 78.5848 117.337 78.5224C116.603 80.0649 114.556 80.6414 114.556 80.6414L115.431 77.4785C115.556 77.0423 115.837 76.6839 116.228 76.4658L119.305 74.7208C120.07 74.2845 120.992 74.2689 121.772 74.6429L122.897 75.1882L142.671 70.9658L150.324 63.3313L154.698 69.4078Z" fill="#FEB991"/>
<path d="M154.698 69.4078L152.496 71.4644L148.278 65.3568L150.324 63.3313L154.698 69.4078Z" fill="#15173F"/>
<path d="M158.65 85.0663L156.931 87.2476L140.453 89.2263C136.267 89.7249 132.722 92.5294 131.269 96.4713L114.869 140.767L125.959 142.481L143.327 105.134C143.327 105.134 185.546 111.974 180.86 90.0365L158.65 85.0663Z" fill="#2E2E75"/>
<path d="M161.414 50.9135C161.336 50.9291 160.008 51.4744 158.134 53.3441C157.462 54.014 148.919 64.4063 148.919 64.4063L154.698 70.4828L156.104 69.2364L155.729 81.3581L153.917 87.3099C153.917 87.3099 156.853 89.5535 159.384 90.7377C169.38 95.4119 182.812 93.5422 182.812 93.5422L181.188 62.3341C181.188 62.3341 181.391 55.0891 177.955 51.2407C177.439 50.6642 176.737 50.2747 175.971 50.1345C173.816 49.7294 168.708 48.8257 161.414 50.9135Z" fill="#DEE3FC"/>
<path d="M160.148 64.565L154.523 70.6451L154.867 70.9621L160.492 64.882L160.148 64.565Z" fill="#15173F"/>
<path d="M165.6 108.235H162.96V136.919H165.6V108.235Z" fill="#7694AD"/>
<path d="M154.573 107.939H173.878C173.878 109.715 172.441 111.148 170.661 111.148H157.79C156.01 111.148 154.573 109.715 154.573 107.939Z" fill="#BAD0F7"/>
<path d="M188.279 103.451H141.5V108.281H188.279V103.451Z" fill="#7694AD"/>
<path d="M186.779 59.5919H165.865C164.022 59.5919 162.46 60.9474 162.21 62.7703L158.79 87.715H146.029L144.311 90.9869H158.352L156.572 103.919H184.936L190.434 63.7675C190.747 61.555 189.013 59.5919 186.779 59.5919Z" fill="#7694AD"/>
<path d="M159.227 103.919L164.866 62.7703C165.116 60.9474 166.678 59.5919 168.521 59.5919H189.435C191.668 59.5919 193.387 61.555 193.09 63.7675L187.592 103.919H159.227Z" fill="#96B1CC"/>
<path d="M83.9236 48.7394C84.2351 47.7999 83.7241 46.7864 82.7823 46.4756C81.8405 46.1649 80.8245 46.6746 80.513 47.6141C80.2015 48.5536 80.7125 49.5671 81.6543 49.8779C82.5961 50.1886 83.6121 49.6789 83.9236 48.7394Z" fill="#BAD0F7"/>
<path d="M59.5299 57.4885L65.0747 78.9742L61.1231 78.9586L55.8906 58.4077L59.5299 57.4885ZM61.7947 76.5436C61.8728 76.8708 62.2164 77.0734 62.56 76.9955C62.9037 76.9175 63.0911 76.5748 63.013 76.232L59.0145 60.5267C58.9364 60.1995 58.5928 59.9969 58.2491 60.0749C57.9211 60.1528 57.7181 60.4955 57.7962 60.8383L61.7947 76.5436Z" fill="#BAD0F7"/>
<path d="M77.039 45.6472L59.8735 58.0182L57.6711 54.9956L74.8367 42.6245L77.039 45.6472ZM60.67 54.4502C60.3889 54.6528 60.3264 55.0423 60.5295 55.3228C60.7325 55.6032 61.123 55.6655 61.4041 55.463L74.5399 45.9276C74.8211 45.7251 74.8835 45.3355 74.6805 45.0551C74.4774 44.7746 74.087 44.7123 73.8058 44.9149L60.67 54.4502Z" fill="#BAD0F7"/>
<path d="M57.8586 59.5919C59.3079 59.5919 60.4827 58.4199 60.4827 56.9743C60.4827 55.5287 59.3079 54.3568 57.8586 54.3568C56.4094 54.3568 55.2346 55.5287 55.2346 56.9743C55.2346 58.4199 56.4094 59.5919 57.8586 59.5919Z" fill="#96B1CC"/>
<path d="M83.8021 43.8243L80.8501 52.7208L72.119 48.4985C70.557 47.7506 69.8073 45.9588 70.354 44.3228C70.9007 42.6869 72.5719 41.7053 74.2744 42.0169L83.8021 43.8243Z" fill="#96B1CC"/>
<path d="M57.9056 58.0338C58.5525 58.0338 59.077 57.5106 59.077 56.8653C59.077 56.2199 58.5525 55.6967 57.9056 55.6967C57.2586 55.6967 56.7341 56.2199 56.7341 56.8653C56.7341 57.5106 57.2586 58.0338 57.9056 58.0338Z" fill="#BAD0F7"/>
<path d="M68.4486 78.756H57.5151V80.1583H68.4486V78.756Z" fill="#96B1CC"/>
<path d="M46.6127 85.7208C45.8942 92.3114 44.3323 100.351 41.3959 110.042L39.1624 109.762C39.1624 109.762 39.2405 106.661 39.4591 102.003C40.0058 89.6783 41.4271 66.4319 44.4729 60.9631C44.4729 60.9787 48.5495 68.1302 46.6127 85.7208Z" fill="#ACC5EA"/>
<path d="M40.5213 112.971H40.0527C40.3339 83.3213 44.2074 61.0098 44.2543 60.7917L44.7229 60.8696C44.6604 61.0877 40.7868 83.3681 40.5213 112.971Z" fill="#15173F"/>
<path d="M46.6127 85.7208C45.8942 92.3114 44.3323 100.351 41.3959 110.042L39.1624 109.762C39.1624 109.762 39.2405 106.661 39.4591 102.003C41.7864 95.1471 44.6603 89.3199 46.6127 85.7208Z" fill="#15173F"/>
<path d="M39.5842 109.061C39.5842 109.061 47.4095 87.7307 52.2983 82.4333C52.2983 82.4333 55.5158 95.5366 41.2555 109.762L39.5842 109.061Z" fill="#ACC5EA"/>
<path d="M26.589 68.7845C26.589 68.7845 38.6001 86.2037 39.7247 109.777H39.303C39.303 109.762 24.0743 84.3964 26.589 68.7845Z" fill="#ACC5EA"/>
<path d="M39.0688 109.793C35.4764 86.2661 26.4641 69.0494 26.3704 68.878L26.7921 68.6599C26.8858 68.8313 35.9293 86.1103 39.5374 109.715L39.0688 109.793Z" fill="#15173F"/>
<path d="M39.4591 112.286L39.0217 112.13C45.2382 94.4771 52.0325 82.4489 52.1106 82.3242L52.5167 82.5579C52.4386 82.667 45.6599 94.6641 39.4591 112.286Z" fill="#15173F"/>
<path d="M48.1122 108.235L47.1906 119.469L44.6135 150.895H34.6952L31.1965 108.235H48.1122Z" fill="#ACC5EA"/>
<path d="M47.1906 119.468L44.6134 150.895H37.7097L47.1906 119.468Z" fill="#96B1CC"/>
<path d="M51.361 119.422C50.8455 119.422 50.4238 119.842 50.4238 120.356V120.559V121.213V125.825H51.564V121.681C51.564 121.416 51.7671 121.213 52.0326 121.213H63.5127C63.7783 121.213 63.9813 121.416 63.9813 121.681V125.825H65.1215V121.213V120.559V120.356C65.1215 119.842 64.6998 119.422 64.1844 119.422H51.361Z" fill="#405DAD"/>
<path d="M79.835 54.4815C79.8194 54.8866 79.6945 55.3696 79.4602 55.9305C78.9916 56.99 77.3828 60.1061 77.3828 60.1061L76.2738 60.0126C76.2738 60.0126 76.2582 59.9036 76.2114 59.7166C76.0396 58.8441 75.571 56.3512 75.3992 55.4163C75.1493 54.0608 75.899 52.2691 77.8982 52.456C78.6636 52.5028 79.9131 52.9858 79.835 54.4815Z" fill="#ACC5EA"/>
<path d="M75.6959 59.4829L74.7275 59.9347L74.6026 59.8101L73.1344 58.252C73.0094 58.1118 72.9001 57.9716 72.822 57.8002C72.6189 57.4107 72.3534 56.6784 72.7439 56.024C72.9157 55.728 73.1968 55.5098 73.5092 55.3852C73.8372 55.245 74.3214 55.1203 74.7744 55.2761C75.2117 55.4319 75.5866 55.8838 75.7115 56.8809C75.774 57.5353 75.6959 59.4829 75.6959 59.4829Z" fill="#ACC5EA"/>
<path d="M76.2752 53.8611L76.0417 53.8805L76.0924 54.486L76.3259 54.4666L76.2752 53.8611Z" fill="white"/>
<path d="M77.8349 54.6007L77.7581 55.1091L77.9897 55.1439L78.0666 54.6355L77.8349 54.6007Z" fill="white"/>
<path d="M76.4298 55.7591H76.1956V56.2733H76.4298V55.7591Z" fill="white"/>
<path d="M77.978 56.3893L77.825 56.8475L78.0472 56.9214L78.2003 56.4632L77.978 56.3893Z" fill="white"/>
<path d="M76.6798 57.8469H76.4456V58.361H76.6798V57.8469Z" fill="white"/>
<path d="M77.695 52.7053H77.4607V53.2195H77.695V52.7053Z" fill="white"/>
<path d="M74.6139 56.1396L74.3882 56.2022L74.518 56.6675L74.7437 56.6049L74.6139 56.1396Z" fill="white"/>
<path d="M73.5155 57.3984L73.3267 57.5366L73.6039 57.9135L73.7928 57.7752L73.5155 57.3984Z" fill="white"/>
<path d="M74.5154 58.0587L74.3013 58.1536L74.5042 58.6092L74.7183 58.5143L74.5154 58.0587Z" fill="white"/>
<path d="M73.1884 55.9524L72.9897 56.0763L73.2464 56.4859L73.445 56.362L73.1884 55.9524Z" fill="white"/>
<path d="M79.8348 54.4814C79.8192 54.8865 79.6943 55.3695 79.46 55.9304C78.9914 56.9899 77.3826 60.1061 77.3826 60.1061L76.2737 60.0126C76.2737 60.0126 76.258 59.9035 76.2112 59.7165L76.5548 59.4984C78.8508 57.2236 79.6474 55.5721 79.8348 54.4814Z" fill="#96B1CC"/>
<path d="M75.6959 59.4829L74.7275 59.9347L74.6025 59.8101C74.8993 59.2959 75.8052 56.6316 74.7587 55.2761C75.1961 55.4319 75.5709 55.8838 75.6959 56.8809C75.774 57.5353 75.6959 59.4829 75.6959 59.4829Z" fill="#96B1CC"/>
<path d="M79.4288 62.1784C79.4288 63.9546 77.9918 65.388 76.2112 65.388C75.1335 65.388 74.1807 64.8582 73.6028 64.048C73.2279 63.5183 72.9937 62.8795 72.9937 62.1784C72.9937 60.4022 74.4306 58.9688 76.2112 58.9688C76.7891 58.9688 77.3358 59.1246 77.8044 59.3894C78.7728 59.9503 79.4288 60.9942 79.4288 62.1784Z" fill="#ACC5EA"/>
<path d="M74.2311 60.2652L74.0088 60.3391L74.1619 60.7973L74.3842 60.7234L74.2311 60.2652Z" fill="white"/>
<path d="M75.7093 60.728L75.4788 60.7697L75.5823 61.3369L75.8128 61.2951L75.7093 60.728Z" fill="white"/>
<path d="M77.5544 60.5579H77.3201V61.0721H77.5544V60.5579Z" fill="white"/>
<path d="M79.4288 62.1783C79.4288 63.9545 77.9918 65.388 76.2112 65.388C75.1335 65.388 74.1807 64.8582 73.6028 64.048C78.7259 62.9574 78.2261 60.4021 77.82 59.3894C78.7727 59.9503 79.4288 60.9942 79.4288 62.1783Z" fill="#96B1CC"/>
<path d="M80.6471 62.8795L80.4753 63.8766L79.4601 69.5636C79.382 70.0154 78.9915 70.3426 78.5385 70.3426H73.9777C73.5248 70.3426 73.1343 70.0154 73.0562 69.5636L71.8535 62.8795C71.8067 62.599 72.0253 62.3497 72.3065 62.3497H80.2098C80.4909 62.3341 80.7096 62.599 80.6471 62.8795Z" fill="#ACC5EA"/>
<path d="M80.4751 63.8766L79.4599 69.5635C79.3818 70.0154 78.9913 70.3426 78.5384 70.3426H76.6641L80.4751 63.8766Z" fill="#96B1CC"/>
<path d="M79.0127 53.8549L78.8596 54.3132L79.0819 54.387L79.2349 53.9288L79.0127 53.8549Z" fill="white"/>
<path d="M76.6173 59.405H76.3831V59.9347H76.6173V59.405Z" fill="white"/>
<path d="M80.3035 62.1316H72.5408V62.599H80.3035V62.1316Z" fill="#15173F"/>
<path d="M89.7376 72.2589V71.1215H90.5498V70.1711H71.1507C69.7449 70.1711 68.6204 71.3085 68.6204 72.6952C68.6204 74.0974 69.7606 75.2192 71.1507 75.2192H90.5498V74.2688H89.7376V73.1314V72.2589Z" fill="#BAD0F7"/>
<path d="M87.176 77.1825V76.0451H87.9882V75.0947H68.5892C67.1834 75.0947 66.0588 76.2321 66.0588 77.6187C66.0588 79.021 67.199 80.1428 68.5892 80.1428H87.9882V79.1924H87.176V78.055V77.1825Z" fill="#96B1CC"/>
<path d="M87.3789 76.0139V79.2235H75.8832C74.9929 79.2235 74.2744 78.5068 74.2744 77.6187C74.2744 77.3538 74.3369 77.1201 74.4462 76.902C74.7118 76.3722 75.2584 76.0139 75.8832 76.0139H87.3789Z" fill="white"/>
<g opacity="0.15">
<path d="M87.379 76.0139V77.5875L74.4463 76.902C74.7118 76.3722 75.2585 76.0139 75.8833 76.0139H87.379Z" fill="black"/>
</g>
<path d="M89.9251 71.106V74.3156H78.4293C77.539 74.3156 76.8206 73.5989 76.8206 72.7108C76.8206 72.4459 76.883 72.2122 76.9924 71.9941C77.2579 71.4643 77.8046 71.106 78.4293 71.106H89.9251Z" fill="white"/>
<path d="M81.5686 71.106H83.0837V73.1314H84.6924V77.868L83.9427 77.0578L83.2711 77.868V73.5054H81.5686V71.106Z" fill="#15173F"/>
<g opacity="0.15">
<path d="M89.9249 71.106V72.6796L76.9922 71.9941C77.2577 71.4643 77.8044 71.106 78.4292 71.106H89.9249Z" fill="black"/>
</g>
</svg>
