<svg width="311" height="202" viewBox="0 0 311 202" fill="none" xmlns="http://www.w3.org/2000/svg">
<path d="M114.165 70.9003H109.399V70.2745H114.165V70.9003ZM104.634 70.9003H99.8681V70.2745H104.634V70.9003ZM95.1026 70.9003H90.3372V70.2745H95.1026V70.9003ZM85.5717 70.9003H80.8062V70.2745H85.5717V70.9003ZM76.0407 70.9003H71.2752V70.2745H76.0407V70.9003ZM66.5097 70.9003H63.5261L63.3396 68.5223L63.9612 68.4806L64.1062 70.2745H66.5097V70.9003ZM62.9667 63.7456L62.5937 58.9688L63.2153 58.9271L63.5883 63.7038L62.9667 63.7456ZM62.2208 54.1712L61.8478 49.3945L62.4694 49.3527L62.8423 54.1295L62.2208 54.1712ZM61.4749 44.6177L61.1019 39.841L61.7235 39.7993L62.0965 44.576L61.4749 44.6177ZM60.729 35.0434L60.356 30.2666L60.9776 30.2249L61.3505 35.0017L60.729 35.0434ZM59.9831 25.469L59.6101 20.6923L60.2317 20.6506L60.6046 25.4273L59.9831 25.469ZM78.3613 20.4211H73.5958V19.7953H78.3613V20.4211ZM68.8303 20.4211H64.0648V19.7953H68.8303V20.4211Z" fill="#6F85EE"/>
<path d="M196.38 66.3739H191.614V65.7481H196.38V66.3739ZM186.849 66.3739H182.083V65.7481H186.849V66.3739ZM198.182 63.6205L197.789 58.8438L198.41 58.8021L198.804 63.5788L198.182 63.6205ZM197.416 54.067L197.022 49.2903L197.643 49.2486L198.037 54.0253L197.416 54.067ZM196.649 44.4927L196.255 39.7159L196.877 39.6742L197.271 44.451L196.649 44.4927ZM195.882 34.9392L195.489 30.1624L196.11 30.1207L196.504 34.8975L195.882 34.9392ZM193.541 27.7219H188.776V27.0961H193.541V27.7219Z" fill="#6F85EE"/>
<path d="M263.718 76.6992H253.068V106.236H263.718V76.6992Z" fill="#556FCE"/>
<path d="M271.218 76.72H263.055V106.257H271.218V76.72Z" fill="#6F85EE"/>
<path d="M270.037 78.8894H264.07V90.8417H270.037V78.8894Z" fill="white"/>
<path d="M269.084 79.9324H264.982V81.3508H269.084V79.9324Z" fill="#E5E5E5"/>
<path d="M266.702 103.19C267.834 103.19 268.753 102.266 268.753 101.125C268.753 99.9848 267.834 99.0603 266.702 99.0603C265.569 99.0603 264.65 99.9848 264.65 101.125C264.65 102.266 265.569 103.19 266.702 103.19Z" fill="white"/>
<path d="M253.275 76.6991H242.625V106.236H253.275V76.6991Z" fill="#96B1CC"/>
<path d="M260.776 76.72H252.612V106.257H260.776V76.72Z" fill="#BAD0F7"/>
<path d="M259.574 78.8894H253.607V90.8417H259.574V78.8894Z" fill="white"/>
<path d="M258.642 79.9324H254.539V81.3508H258.642V79.9324Z" fill="#E5E5E5"/>
<path d="M256.259 103.19C257.392 103.19 258.31 102.266 258.31 101.125C258.31 99.9847 257.392 99.0602 256.259 99.0602C255.126 99.0602 254.208 99.9847 254.208 101.125C254.208 102.266 255.126 103.19 256.259 103.19Z" fill="white"/>
<path d="M143.379 42.9907H79.7701L77.9468 5.29826L77.6981 3.43323e-05H141.307L141.556 5.29826L143.379 42.9907Z" fill="#D6E3F8"/>
<path d="M141.556 5.29826H77.9468L77.6981 3.43323e-05H141.307L141.556 5.29826Z" fill="#96B1CC"/>
<path d="M83.2925 10.367H94.191L95.4341 38.1514H84.5357L83.2925 10.367Z" fill="#96B1CC"/>
<path d="M96.8635 10.3462L97.0707 12.453H121.665L121.458 10.3462H96.8635Z" fill="#96B1CC"/>
<path d="M97.6924 23.1955L97.8996 25.3231H122.494L122.286 23.1955H97.6924Z" fill="white"/>
<path d="M97.8997 27.7219L98.1069 29.8495H122.701L122.494 27.7219H97.8997Z" fill="white"/>
<path d="M98.1069 31.8103L98.3141 38.1932H122.908L122.701 31.8103H98.1069Z" fill="white"/>
<path d="M97.0709 14.5806L97.2781 16.7083H110.912L110.704 14.5806H97.0709Z" fill="#96B1CC"/>
<path d="M124.773 10.3462L125.187 16.7083H136.024L135.609 10.3462H124.773Z" fill="#96B1CC"/>
<path d="M125.394 18.982L125.602 21.1722H136.438L136.231 18.982H125.394Z" fill="white"/>
<path d="M125.602 23.2372L125.809 25.4274H136.645L136.438 23.2372H125.602Z" fill="white"/>
<path d="M156.64 16.9794L157.717 35.9612H187.491L186.413 16.9794H156.64Z" fill="#D6E3F8"/>
<path d="M160.058 20.8592L160.162 22.1733H170.708L170.604 20.8592H160.058Z" fill="white"/>
<path d="M160.245 24.1132L160.328 25.4273H183.596L183.513 24.1132H160.245Z" fill="white"/>
<path d="M160.411 27.3464L160.494 28.6605H183.782L183.679 27.3464H160.411Z" fill="white"/>
<path d="M160.597 30.6004L160.68 31.9145H183.948L183.865 30.6004H160.597Z" fill="white"/>
<path d="M88.0164 108.697L62.8422 200.936H58.0145L83.1887 108.697H88.0164Z" fill="#96B1CC"/>
<path d="M83.1887 108.697L108.384 200.936H113.211L88.0164 108.697H83.1887Z" fill="#96B1CC"/>
<path d="M236.057 108.697H191.179V200.936H236.057V108.697Z" fill="#96B1CC"/>
<path d="M103.825 108.697L129.02 200.936H133.827L108.653 108.697H103.825Z" fill="#96B1CC"/>
<path d="M105.711 108.697L130.885 200.936H135.713L110.518 108.697H105.711Z" fill="#BAD0F7"/>
<path d="M108.653 108.697L83.4582 200.936H78.6512L103.825 108.697H108.653Z" fill="#96B1CC"/>
<path d="M110.518 108.697L85.3435 200.936H80.5159L105.711 108.697H110.518Z" fill="#BAD0F7"/>
<path d="M94.1907 106.257V111.117H235.104V200.936H275.569V106.257H94.1907Z" fill="#BAD0F7"/>
<path d="M100.344 106.257H68.9957V111.117H100.344V106.257Z" fill="#96B1CC"/>
<path d="M238.046 113.265V198.225H273.415V113.265H238.046ZM272.358 197.161H239.145V181.391H249.857V184.228H262.682V181.391H272.379V197.161H272.358ZM272.358 180.307H239.145V163.578H249.857V166.414H262.682V163.578H272.379V180.307H272.358ZM272.358 162.493H239.145V147.203H249.857V149.936H262.682V147.203H272.379V162.493H272.358ZM272.358 146.139H239.145V130.933H249.857V133.77H262.682V130.933H272.379V146.139H272.358ZM272.358 129.869H239.145V114.35H249.857V117.041H262.682V114.35H272.379V129.869H272.358Z" fill="#96B1CC"/>
<path d="M142.032 89.4649L139.546 106.361H151.77L154.257 89.4649H142.032Z" fill="#96B1CC"/>
<path d="M114.164 52.1057L116.671 89.2767C116.775 90.862 118.08 92.0927 119.655 92.0927H177.4C179.141 92.0927 180.508 90.6117 180.384 88.8804L177.877 51.7094C177.773 50.1241 176.468 48.8934 174.893 48.8934H117.148C115.428 48.8934 114.04 50.3744 114.164 52.1057Z" fill="#96B1CC"/>
<path d="M144.311 89.4649L141.825 106.361H154.049L156.536 89.4649H144.311Z" fill="#BAD0F7"/>
<path d="M179.907 92.0931H122.162C120.587 92.0931 119.282 90.8624 119.178 89.2771L118.868 84.7507L116.651 52.1061C116.526 50.3539 117.915 48.8729 119.634 48.8729H177.38C178.954 48.8729 180.26 50.1036 180.363 51.6889L182.601 84.7507L182.87 88.8599C183.015 90.6121 181.648 92.0931 179.907 92.0931Z" fill="#BAD0F7"/>
<path d="M121.955 84.5421L119.966 54.7761C119.862 53.2742 121.105 52.0018 122.659 52.0018H174.873C176.302 52.0018 177.483 53.0656 177.566 54.4215L179.576 84.5212H121.955V84.5421Z" fill="white"/>
<path d="M137.163 103.858H123.385V106.361H137.163V103.858Z" fill="#96B1CC"/>
<path d="M173.215 103.858H136.438V106.361H173.215V103.858Z" fill="#BAD0F7"/>
<path d="M133.931 88.1299H125.353V93.7619C125.353 93.7619 125.353 95.9729 127.549 96.1815H136.334C136.334 96.1815 134.428 96.0772 134.034 93.8662L133.931 88.1299Z" fill="#6F85EE"/>
<path d="M144.498 85.8353H135.92V91.4673C135.92 91.4673 135.92 93.6783 138.116 93.8869H146.901C146.901 93.8869 144.995 93.7826 144.601 91.5716L144.498 85.8353Z" fill="#6F85EE"/>
<path d="M132.921 51.9711L131.474 52.0645L133.545 84.6022L134.993 84.5088L132.921 51.9711Z" fill="#E3EDFC"/>
<path d="M163.38 51.9711L161.932 52.0645L164.004 84.6022L165.452 84.5088L163.38 51.9711Z" fill="#E3EDFC"/>
<path d="M136.334 58.0718L136.956 67.2498H160.162L159.54 58.0718H136.334Z" fill="#D6E3F8"/>
<path d="M165.756 58.197L166.005 62.035H175.701L175.432 58.197H165.756Z" fill="#D6E3F8"/>
<path d="M166.378 66.3321L166.626 70.1702H176.323L176.054 66.3321H166.378Z" fill="#D6E3F8"/>
<path d="M166.999 74.4671L167.248 78.3052H176.944L176.675 74.4671H166.999Z" fill="#D6E3F8"/>
<path d="M137.163 71.4216L137.785 80.5997H160.99L160.369 71.4216H137.163Z" fill="#D6E3F8"/>
<path d="M144.829 54.63H136.334V55.673H144.829V54.63Z" fill="#E3EDFC"/>
<path d="M130.119 54.7344H121.624V55.7773H130.119V54.7344Z" fill="#E3EDFC"/>
<path d="M130.326 57.6546H121.831V58.6976H130.326V57.6546Z" fill="#E3EDFC"/>
<path d="M130.533 60.5749H122.038V61.6179H130.533V60.5749Z" fill="#E3EDFC"/>
<path d="M130.74 63.4952H122.245V64.5382H130.74V63.4952Z" fill="#E3EDFC"/>
<path d="M130.947 66.4155H122.452V67.4585H130.947V66.4155Z" fill="#E3EDFC"/>
<path d="M170.936 54.7344H165.549V55.7773H170.936V54.7344Z" fill="#E3EDFC"/>
<path d="M218.778 67.5628L218.384 61.5345C218.384 61.5345 208.563 64.0793 213.225 45.4104C213.225 45.4104 219.503 38.7772 227.314 45.4104V58.9688L228.64 65.9149L218.778 67.5628Z" fill="#FEB991"/>
<path d="M232.39 45.4939C233.198 37.9011 229.034 38.7981 229.034 38.7981C224.848 32.7698 222.735 36.3575 222.735 36.3575C219.213 33.187 218.115 36.2533 218.115 36.2533C214.654 34.814 214.033 37.9011 214.033 37.9011C210.78 37.2754 210.966 40.3625 210.966 40.3625C209.744 40.5711 209.495 42.1773 209.537 42.8239C209.827 46.954 212.748 47.2669 214.364 47.1209L214.737 52.1479C214.779 52.6277 215.235 52.9406 215.69 52.7946C215.96 52.7111 216.146 52.4817 216.208 52.2105C216.229 52.1479 216.229 52.0853 216.229 52.0436C216.581 50.2497 219.461 48.873 219.876 52.0436C219.876 52.0436 220.187 56.132 218.052 56.2155C218.052 56.2155 220.352 61.0965 225.822 60.0744C226.734 59.9075 232.722 58.3848 232.245 47.8927C232.432 46.4742 232.39 45.4939 232.39 45.4939Z" fill="#15173F"/>
<path d="M210.925 93.9497L200.855 102.022C200.13 102.606 199.239 102.961 198.307 103.023L173.112 104.901L166.274 105.318C166.274 105.318 167.517 103.649 169.175 103.232H164.617L160.079 105.214C159.54 105.443 158.919 105.235 158.649 104.713C158.401 104.233 158.525 103.628 158.96 103.274L163.788 99.5817C164.575 98.9768 165.57 98.6848 166.564 98.7891L172.987 99.394L175.349 100.249L192.464 98.1424L206.035 80.725L210.925 93.9497Z" fill="#E09B79"/>
<path d="M163.891 182.455L159.727 191.779L157.966 195.742H150.175L152.164 189.902L154.671 182.601L163.891 182.455Z" fill="#FEB991"/>
<path d="M159.167 193.072C158.484 193.782 155.707 196.139 151.128 192.926C151.087 192.905 151.045 192.885 150.983 192.926L138.324 199.747C137.723 200.06 137.951 200.978 138.634 200.978H159.292C160.245 200.978 160.949 200.081 160.742 199.163L159.395 193.177C159.375 193.031 159.25 192.989 159.167 193.072Z" fill="#15173F"/>
<path d="M194.556 182.455L191.676 191.862L190.495 195.742H182.705L183.761 190.34L185.336 182.392L194.556 182.455Z" fill="#FEB991"/>
<path d="M194.556 182.455L191.676 191.862L183.761 190.34L185.336 182.392L194.556 182.455Z" fill="#15173F"/>
<path d="M191.283 193.072C190.599 193.782 187.822 196.139 183.243 192.926C183.202 192.905 183.161 192.885 183.098 192.926L170.439 199.747C169.838 200.06 170.066 200.978 170.75 200.978H191.407C192.36 200.978 193.064 200.081 192.857 199.163L191.511 193.177C191.49 193.031 191.365 192.989 191.283 193.072Z" fill="#15173F"/>
<path d="M191.966 128.889L182.539 188.859L196.214 189.693L211.857 128.889H191.966Z" fill="#15173F"/>
<path d="M163.891 182.455L159.727 191.779L152.164 189.902L154.671 182.601L163.891 182.455Z" fill="#15173F"/>
<path d="M204.502 92.0723L201.58 94.8466L194.909 101.167C194.266 101.772 193.458 102.147 192.567 102.231L166.171 104.796L163.684 105.839C161.156 106.277 158.587 105.631 156.743 104.546C156.122 104.442 155.521 104.358 154.941 104.275C153.967 106.34 151.253 107.112 151.253 107.112L152.413 102.877C152.579 102.293 152.952 101.814 153.47 101.522L157.551 99.1853C158.567 98.6012 159.789 98.5804 160.825 99.081L162.317 99.8111L188.548 94.1582L198.7 83.9372L204.502 92.0723Z" fill="#FEB991"/>
<path d="M204.502 92.0723L201.58 94.8257L195.986 86.6489L198.7 83.9372L204.502 92.0723Z" fill="#15173F"/>
<path d="M209.744 113.036L207.465 115.956L185.605 118.605C180.053 119.273 175.349 123.027 173.422 128.305L151.667 187.607L166.378 189.902L189.418 139.902C189.418 139.902 245.423 149.059 239.207 119.69L209.744 113.036Z" fill="#2E2E75"/>
<path d="M213.411 67.3125C213.307 67.3334 211.546 68.0635 209.06 70.5666C208.169 71.4635 196.835 85.3766 196.835 85.3766L204.502 93.5116L206.366 91.8429L205.869 108.071L203.466 116.04C203.466 116.04 207.361 119.043 210.718 120.629C223.978 126.886 241.797 124.383 241.797 124.383L239.642 82.6023C239.642 82.6023 239.911 72.9028 235.353 67.7506C234.669 66.9788 233.737 66.4573 232.722 66.2696C229.862 65.7272 223.087 64.5174 213.411 67.3125Z" fill="#DEE3FC"/>
<path d="M211.731 85.5889L204.27 93.7288L204.726 94.1532L212.188 86.0133L211.731 85.5889Z" fill="#15173F"/>
<path d="M218.964 144.053H215.462V182.455H218.964V144.053Z" fill="#7694AD"/>
<path d="M204.336 143.657H229.945C229.945 146.035 228.039 147.954 225.677 147.954H208.604C206.242 147.954 204.336 146.035 204.336 143.657Z" fill="#BAD0F7"/>
<path d="M217.368 178.7C219.482 178.7 221.181 180.411 221.181 182.538V189.443H213.556V182.538C213.556 180.411 215.276 178.7 217.368 178.7Z" fill="#BAD0F7"/>
<path d="M193.52 200.936C195.58 200.936 197.25 199.255 197.25 197.182C197.25 195.108 195.58 193.427 193.52 193.427C191.461 193.427 189.791 195.108 189.791 197.182C189.791 199.255 191.461 200.936 193.52 200.936Z" fill="#7694AD"/>
<path d="M205.869 200.936C207.929 200.936 209.599 199.255 209.599 197.182C209.599 195.108 207.929 193.427 205.869 193.427C203.809 193.427 202.14 195.108 202.14 197.182C202.14 199.255 203.809 200.936 205.869 200.936Z" fill="#7694AD"/>
<path d="M228.868 200.936C230.927 200.936 232.597 199.255 232.597 197.182C232.597 195.108 230.927 193.427 228.868 193.427C226.808 193.427 225.138 195.108 225.138 197.182C225.138 199.255 226.808 200.936 228.868 200.936Z" fill="#7694AD"/>
<path d="M241.382 200.936C243.442 200.936 245.112 199.255 245.112 197.182C245.112 195.108 243.442 193.427 241.382 193.427C239.323 193.427 237.653 195.108 237.653 197.182C237.653 199.255 239.323 200.936 241.382 200.936Z" fill="#7694AD"/>
<path d="M228.951 197.891C228.37 197.891 227.894 197.411 227.894 196.827V195.68C227.894 192.843 225.615 190.548 222.797 190.548H199.778C196.96 190.548 194.681 192.843 194.681 195.68V196.827C194.681 197.411 194.204 197.891 193.624 197.891C193.044 197.891 192.567 197.411 192.567 196.827V195.68C192.567 191.654 195.799 188.4 199.798 188.4H222.818C226.816 188.4 230.049 191.654 230.049 195.68V196.827C230.028 197.39 229.551 197.891 228.951 197.891Z" fill="#7694AD"/>
<path d="M241.299 197.891C240.719 197.891 240.243 197.411 240.243 196.827V195.68C240.243 192.843 237.964 190.548 235.146 190.548H212.126C209.309 190.548 207.029 192.843 207.029 195.68V196.827C207.029 197.411 206.553 197.891 205.973 197.891C205.393 197.891 204.916 197.411 204.916 196.827V195.68C204.916 191.654 208.148 188.4 212.147 188.4H235.167C239.165 188.4 242.398 191.654 242.398 195.68V196.827C242.356 197.39 241.88 197.891 241.299 197.891Z" fill="#BAD0F7"/>
<path d="M249.049 137.649H186.994V144.116H249.049V137.649Z" fill="#7694AD"/>
<path d="M247.06 78.931H219.316C216.871 78.931 214.799 80.7457 214.468 83.1862L209.93 116.582H193.002L190.723 120.962H209.35L206.988 138.275H244.615L251.908 84.5212C252.322 81.5592 250.022 78.931 247.06 78.931Z" fill="#7694AD"/>
<path d="M210.51 138.275L217.99 83.1862C218.322 80.7457 220.393 78.931 222.838 78.931H250.582C253.545 78.931 255.824 81.5592 255.43 84.5212L248.137 138.275H210.51Z" fill="#96B1CC"/>
<path d="M110.617 64.4018C111.03 63.144 110.352 61.7872 109.103 61.3712C107.853 60.9552 106.506 61.6376 106.092 62.8954C105.679 64.1532 106.357 65.51 107.606 65.926C108.856 66.342 110.204 65.6596 110.617 64.4018Z" fill="#BAD0F7"/>
<path d="M78.2576 76.115L85.613 104.88L80.371 104.859L73.4299 77.3457L78.2576 76.115ZM81.2619 101.626C81.3655 102.064 81.8213 102.335 82.2772 102.231C82.733 102.126 82.9816 101.667 82.878 101.209L77.5738 80.1825C77.4702 79.7445 77.0144 79.4733 76.5586 79.5776C76.1235 79.6819 75.8541 80.1408 75.9577 80.5997L81.2619 101.626Z" fill="#BAD0F7"/>
<path d="M101.484 60.262L78.7136 76.8242L75.7921 72.7775L98.5629 56.2154L101.484 60.262ZM79.7703 72.0475C79.3973 72.3186 79.3144 72.8401 79.5838 73.2156C79.8531 73.591 80.3711 73.6745 80.7441 73.4033L98.1692 60.6375C98.5422 60.3663 98.625 59.8449 98.3557 59.4694C98.0863 59.0939 97.5683 59.0105 97.1954 59.2817L79.7703 72.0475Z" fill="#BAD0F7"/>
<path d="M76.0406 78.931C77.963 78.931 79.5214 77.362 79.5214 75.4266C79.5214 73.4912 77.963 71.9223 76.0406 71.9223C74.1181 71.9223 72.5597 73.4912 72.5597 75.4266C72.5597 77.362 74.1181 78.931 76.0406 78.931Z" fill="#96B1CC"/>
<path d="M110.456 57.8215L106.54 69.7321L94.9574 64.0793C92.8855 63.078 91.8909 60.6792 92.6161 58.489C93.3413 56.2988 95.5583 54.9847 97.8167 55.4019L110.456 57.8215Z" fill="#96B1CC"/>
<path d="M76.1027 76.8451C76.9609 76.8451 77.6566 76.1447 77.6566 75.2806C77.6566 74.4166 76.9609 73.7162 76.1027 73.7162C75.2444 73.7162 74.5487 74.4166 74.5487 75.2806C74.5487 76.1447 75.2444 76.8451 76.1027 76.8451Z" fill="#BAD0F7"/>
<path d="M90.0885 104.588H75.5848V106.465H90.0885V104.588Z" fill="#96B1CC"/>
<path d="M61.1224 113.912C60.1693 122.735 58.0973 133.499 54.202 146.473L51.2391 146.098C51.2391 146.098 51.3427 141.947 51.6328 135.71C52.358 119.21 54.2435 88.0883 58.2838 80.7667C58.2838 80.7876 63.6916 90.3619 61.1224 113.912Z" fill="#ACC5EA"/>
<path d="M53.0419 150.395H52.4203C52.7932 110.7 57.9317 80.8292 57.9938 80.5372L58.6154 80.6415C58.5325 80.9335 53.3941 110.762 53.0419 150.395Z" fill="#15173F"/>
<path d="M61.1223 113.912C60.1693 122.735 58.0973 133.499 54.202 146.473L51.2391 146.098C51.2391 146.098 51.3427 141.947 51.6328 135.71C54.72 126.532 58.5324 118.73 61.1223 113.912Z" fill="#15173F"/>
<path d="M51.799 145.159C51.799 145.159 62.1794 116.603 68.6646 109.511C68.6646 109.511 72.9329 127.053 54.0159 146.098L51.799 145.159Z" fill="#ACC5EA"/>
<path d="M34.56 91.2379C34.56 91.2379 50.4933 114.558 51.9851 146.118H51.4257C51.4257 146.097 31.2242 112.139 34.56 91.2379Z" fill="#ACC5EA"/>
<path d="M51.115 146.139C46.3495 114.642 34.3943 91.5926 34.27 91.3631L34.8294 91.0711C34.9538 91.3006 46.9504 114.433 51.7366 146.035L51.115 146.139Z" fill="#15173F"/>
<path d="M51.633 149.477L51.0529 149.268C59.2992 125.635 68.3122 109.531 68.4158 109.365L68.9545 109.677C68.8509 109.824 59.8587 125.885 51.633 149.477Z" fill="#15173F"/>
<path d="M63.1115 144.053L61.889 159.093L58.4703 201.166H45.3134L40.6722 144.053H63.1115Z" fill="#ACC5EA"/>
<path d="M61.8891 159.093L58.4704 201.166H49.3124L61.8891 159.093Z" fill="#96B1CC"/>
<path d="M67.4214 159.03C66.7376 159.03 66.1782 159.593 66.1782 160.282V160.553V161.429V167.603H67.6908V162.055C67.6908 161.7 67.9601 161.429 68.3123 161.429H83.5412C83.8934 161.429 84.1628 161.7 84.1628 162.055V167.603H85.6753V161.429V160.553V160.282C85.6753 159.593 85.1159 159.03 84.4321 159.03H67.4214Z" fill="#405DAD"/>
<path d="M98.5626 168.938V198.913C98.5626 200.06 97.6302 200.999 96.4907 200.999H54.0778C52.9382 200.999 52.0059 200.06 52.0059 198.913V168.938C52.0059 167.791 52.9382 166.852 54.0778 166.852H96.4907C97.6302 166.831 98.5626 167.77 98.5626 168.938Z" fill="#6F85EE"/>
<path d="M93.8593 178.805L72.5182 186.502L52.0059 179.117V177.261L72.5182 184.666L93.2791 177.178L93.8593 178.805Z" fill="#405DAD"/>
<path d="M98.5626 168.938V198.913C98.5626 200.06 97.6303 200.999 96.4907 200.999H95.1025C93.9629 200.999 93.0305 200.06 93.0305 198.913V168.938C93.0305 167.791 93.9629 166.852 95.1025 166.852H96.4907C97.6303 166.831 98.5626 167.77 98.5626 168.938Z" fill="#405DAD"/>
<path d="M105.193 72.0893C105.172 72.6316 105.006 73.2783 104.696 74.0292C104.074 75.4476 101.94 79.6195 101.94 79.6195L100.469 79.4943C100.469 79.4943 100.448 79.3483 100.386 79.098C100.158 77.9299 99.5365 74.5924 99.3086 73.3409C98.9771 71.5261 99.9716 69.1273 102.624 69.3776C103.639 69.4402 105.297 70.0868 105.193 72.0893Z" fill="#ACC5EA"/>
<path d="M99.7023 78.785L98.4176 79.39L98.2519 79.2231L96.3042 77.1372C96.1385 76.9494 95.9935 76.7617 95.8899 76.5323C95.6205 76.0108 95.2683 75.0304 95.7863 74.1543C96.0142 73.758 96.3871 73.466 96.8015 73.2991C97.2366 73.1114 97.8789 72.9445 98.4798 73.1531C99.0599 73.3617 99.5572 73.9666 99.723 75.3016C99.8058 76.1777 99.7023 78.785 99.7023 78.785Z" fill="#ACC5EA"/>
<path d="M100.471 71.2589L100.161 71.2848L100.229 72.0954L100.538 72.0695L100.471 71.2589Z" fill="white"/>
<path d="M102.54 72.2488L102.438 72.9295L102.745 72.9761L102.847 72.2955L102.54 72.2488Z" fill="white"/>
<path d="M100.676 73.7997H100.365V74.4881H100.676V73.7997Z" fill="white"/>
<path d="M102.73 74.6434L102.527 75.2569L102.822 75.3558L103.025 74.7423L102.73 74.6434Z" fill="white"/>
<path d="M101.008 76.5948H100.697V77.2831H101.008V76.5948Z" fill="white"/>
<path d="M102.354 69.7114H102.044V70.3997H102.354V69.7114Z" fill="white"/>
<path d="M98.2669 74.3091L97.9675 74.393L98.1397 75.0159L98.4391 74.932L98.2669 74.3091Z" fill="white"/>
<path d="M96.8099 75.9943L96.5593 76.1794L96.9271 76.6839L97.1776 76.4988L96.8099 75.9943Z" fill="white"/>
<path d="M98.1361 76.8785L97.8521 77.0055L98.1213 77.6155L98.4053 77.4884L98.1361 76.8785Z" fill="white"/>
<path d="M96.3763 74.0586L96.1128 74.2244L96.4532 74.7728L96.7168 74.6069L96.3763 74.0586Z" fill="white"/>
<path d="M105.193 72.0892C105.172 72.6316 105.007 73.2782 104.696 74.0291C104.074 75.4476 101.94 79.6194 101.94 79.6194L100.469 79.4942C100.469 79.4942 100.448 79.3482 100.386 79.0979L100.842 78.8059C103.888 75.7605 104.944 73.5494 105.193 72.0892Z" fill="#96B1CC"/>
<path d="M99.7022 78.7851L98.4176 79.39L98.2518 79.2231C98.6455 78.5347 99.8472 74.9678 98.459 73.1531C99.0392 73.3617 99.5364 73.9666 99.7022 75.3016C99.8058 76.1777 99.7022 78.7851 99.7022 78.7851Z" fill="#96B1CC"/>
<path d="M104.654 82.3937C104.654 84.7717 102.748 86.6907 100.386 86.6907C98.9564 86.6907 97.6925 85.9815 96.9259 84.8968C96.4286 84.1876 96.1178 83.3324 96.1178 82.3937C96.1178 80.0158 98.024 78.0967 100.386 78.0967C101.153 78.0967 101.878 78.3053 102.499 78.6599C103.784 79.4109 104.654 80.8084 104.654 82.3937Z" fill="#ACC5EA"/>
<path d="M97.7593 79.8324L97.4645 79.9313L97.6676 80.5448L97.9625 80.4458L97.7593 79.8324Z" fill="white"/>
<path d="M99.72 80.452L99.4142 80.5079L99.5515 81.2672L99.8573 81.2113L99.72 80.452Z" fill="white"/>
<path d="M102.168 80.2243H101.857V80.9127H102.168V80.2243Z" fill="white"/>
<path d="M104.654 82.3937C104.654 84.7716 102.748 86.6907 100.386 86.6907C98.9563 86.6907 97.6924 85.9815 96.9258 84.8968C103.722 83.4366 103.059 80.0157 102.52 78.6599C103.784 79.4108 104.654 80.8084 104.654 82.3937Z" fill="#96B1CC"/>
<path d="M106.27 83.3323L106.043 84.6673L104.696 92.2809C104.592 92.8858 104.074 93.3238 103.473 93.3238H97.4232C96.8223 93.3238 96.3043 92.8858 96.2007 92.2809L94.6053 83.3323C94.5432 82.9568 94.8333 82.6231 95.2062 82.6231H105.69C106.063 82.6022 106.353 82.9568 106.27 83.3323Z" fill="#ACC5EA"/>
<path d="M106.042 84.6673L104.696 92.2809C104.592 92.8858 104.074 93.3238 103.473 93.3238H100.987L106.042 84.6673Z" fill="#96B1CC"/>
<path d="M104.102 71.2504L103.899 71.8639L104.194 71.9628L104.397 71.3493L104.102 71.2504Z" fill="white"/>
<path d="M100.925 78.6807H100.614V79.39H100.925V78.6807Z" fill="white"/>
<path d="M105.814 82.3311H95.5168V82.9569H105.814V82.3311Z" fill="#15173F"/>
<path d="M118.329 95.8894V94.3667H119.406V93.0943H93.6728C91.8081 93.0943 90.3163 94.617 90.3163 96.4735C90.3163 98.3508 91.8288 99.8527 93.6728 99.8527H119.406V98.5803H118.329V97.0575V95.8894Z" fill="#BAD0F7"/>
<path d="M114.931 102.481V100.958H116.008V99.6858H90.2748C88.41 99.6858 86.9182 101.209 86.9182 103.065C86.9182 104.942 88.4307 106.444 90.2748 106.444H116.008V105.172H114.931V103.649V102.481Z" fill="#96B1CC"/>
<path d="M115.2 100.916V105.213H99.9508C98.7698 105.213 97.8167 104.254 97.8167 103.065C97.8167 102.71 97.8995 102.397 98.0446 102.105C98.3968 101.396 99.122 100.916 99.9508 100.916H115.2Z" fill="white"/>
<g opacity="0.15">
<path d="M115.2 100.916V103.023L98.0446 102.105C98.3968 101.396 99.122 100.916 99.9508 100.916H115.2Z" fill="black"/>
</g>
<path d="M118.578 94.3459V98.6429H103.328C102.147 98.6429 101.194 97.6834 101.194 96.4944C101.194 96.1398 101.277 95.8269 101.422 95.5349C101.774 94.8256 102.499 94.3459 103.328 94.3459H118.578Z" fill="white"/>
<path d="M107.493 94.3459H109.502V97.0576H111.637V103.399L110.642 102.314L109.751 103.399V97.5582H107.493V94.3459Z" fill="#15173F"/>
<g opacity="0.15">
<path d="M118.578 94.3459V96.4527L101.422 95.5349C101.774 94.8256 102.499 94.3459 103.328 94.3459H118.578Z" fill="black"/>
</g>
<path d="M311 200.748H0V202H311V200.748Z" fill="#15173F"/>
</svg>
