<svg width="19" height="19" viewBox="0 0 19 19" fill="none" xmlns="http://www.w3.org/2000/svg">
<path d="M17.2175 6.79696V12.4125C17.2175 13.3321 16.7249 14.1859 15.9286 14.6539L11.0519 17.4699C10.2555 17.9297 9.2703 17.9297 8.46573 17.4699L3.58901 14.6539C2.79265 14.1941 2.30005 13.3403 2.30005 12.4125V6.79696C2.30005 5.87744 2.79265 5.02357 3.58901 4.5556L8.46573 1.73959C9.2621 1.27984 10.2473 1.27984 11.0519 1.73959L15.9286 4.5556C16.7249 5.02357 17.2175 5.86923 17.2175 6.79696Z" stroke="#E9E9E9" stroke-width="1.64199" stroke-linecap="round" stroke-linejoin="round"/>
<path d="M9.7629 8.78383C10.8194 8.78383 11.6758 7.92737 11.6758 6.87089C11.6758 5.81442 10.8194 4.95801 9.7629 4.95801C8.70642 4.95801 7.84998 5.81442 7.84998 6.87089C7.84998 7.92737 8.70642 8.78383 9.7629 8.78383Z" stroke="#E9E9E9" stroke-width="1.64199" stroke-linecap="round" stroke-linejoin="round"/>
<path d="M13.0469 13.4306C13.0469 11.9528 11.5773 10.7542 9.76287 10.7542C7.94846 10.7542 6.47888 11.9528 6.47888 13.4306" stroke="#E9E9E9" stroke-width="1.64199" stroke-linecap="round" stroke-linejoin="round"/>
</svg>
