<svg width="19" height="18" viewBox="0 0 19 18" fill="none" xmlns="http://www.w3.org/2000/svg">
<path d="M14.105 16.215C13.445 16.41 12.665 16.5 11.75 16.5H7.25002C6.33502 16.5 5.55502 16.41 4.89502 16.215C5.06002 14.265 7.06252 12.7275 9.50002 12.7275C11.9375 12.7275 13.94 14.265 14.105 16.215Z" stroke="#E9E9E9" stroke-width="1.5" stroke-linecap="round" stroke-linejoin="round"/>
<path d="M11.75 1.5H7.25C3.5 1.5 2 3 2 6.75V11.25C2 14.085 2.855 15.6375 4.895 16.215C5.06 14.265 7.0625 12.7275 9.5 12.7275C11.9375 12.7275 13.94 14.265 14.105 16.215C16.145 15.6375 17 14.085 17 11.25V6.75C17 3 15.5 1.5 11.75 1.5ZM9.5 10.6275C8.015 10.6275 6.815 9.42001 6.815 7.93501C6.815 6.45001 8.015 5.25 9.5 5.25C10.985 5.25 12.185 6.45001 12.185 7.93501C12.185 9.42001 10.985 10.6275 9.5 10.6275Z" stroke="#E9E9E9" stroke-width="1.5" stroke-linecap="round" stroke-linejoin="round"/>
<path d="M12.185 7.93501C12.185 9.42001 10.985 10.6275 9.5 10.6275C8.015 10.6275 6.815 9.42001 6.815 7.93501C6.815 6.45001 8.015 5.25 9.5 5.25C10.985 5.25 12.185 6.45001 12.185 7.93501Z" stroke="#E9E9E9" stroke-width="1.5" stroke-linecap="round" stroke-linejoin="round"/>
</svg>
