<svg width="21" height="21" viewBox="0 0 21 21" fill="none" xmlns="http://www.w3.org/2000/svg">
<path d="M10.8728 3.55042C11.3166 3.55286 12.4268 3.56359 13.6064 3.61084L14.0247 3.62908C15.2123 3.68531 16.399 3.78137 16.9876 3.94548C17.7727 4.16602 18.3897 4.80955 18.5983 5.62528C18.9303 6.92062 18.9719 9.44885 18.977 10.0607L18.9778 10.1875V10.1964C18.9778 10.1964 18.9778 10.1994 18.9778 10.2053L18.977 10.3321C18.9719 10.9439 18.9303 13.4722 18.5983 14.7675C18.3868 15.5862 17.7697 16.2298 16.9876 16.4473C16.399 16.6114 15.2123 16.7074 14.0247 16.7637L13.6064 16.7819C12.4268 16.8292 11.3166 16.8399 10.8728 16.8424L10.6781 16.843H10.6694C10.6694 16.843 10.6665 16.843 10.6608 16.843L10.4662 16.8424C9.52702 16.8372 5.60018 16.7948 4.35126 16.4473C3.5662 16.2267 2.94915 15.5832 2.74057 14.7675C2.40851 13.4722 2.367 10.9439 2.36182 10.3321V10.0607C2.367 9.44885 2.40851 6.92062 2.74057 5.62528C2.95204 4.80652 3.56909 4.16301 4.35126 3.94548C5.60018 3.59796 9.52702 3.55558 10.4662 3.55042H10.8728ZM9.00776 7.28846V13.1043L13.9928 10.1964L9.00776 7.28846Z" fill="#4AA5FF"/>
</svg>
