<svg width="14" height="14" viewBox="0 0 14 14" fill="none" xmlns="http://www.w3.org/2000/svg">
<path d="M5.27104 11.0374H4.99384C2.77627 11.0374 1.66748 10.483 1.66748 7.71106V4.93909C1.66748 2.72152 2.77627 1.61273 4.99384 1.61273H9.42899C11.6466 1.61273 12.7553 2.72152 12.7553 4.93909V7.71106C12.7553 9.92863 11.6466 11.0374 9.42899 11.0374H9.15179C8.97993 11.0374 8.81361 11.1206 8.70828 11.2592L7.87669 12.368C7.51079 12.8558 6.91204 12.8558 6.54614 12.368L5.71455 11.2592C5.62585 11.1372 5.42072 11.0374 5.27104 11.0374Z" stroke="white" stroke-width="1.24738" stroke-miterlimit="10" stroke-linecap="round" stroke-linejoin="round"/>
<path d="M4.43921 4.93909H9.98314" stroke="white" stroke-width="1.24738" stroke-linecap="round" stroke-linejoin="round"/>
<path d="M4.43921 7.71106H7.76557" stroke="white" stroke-width="1.24738" stroke-linecap="round" stroke-linejoin="round"/>
</svg>
