<svg width="13" height="13" viewBox="0 0 13 13" fill="none" xmlns="http://www.w3.org/2000/svg">
<path d="M8.02015 6.65668C8.02015 7.61717 7.244 8.39332 6.28351 8.39332C5.32303 8.39332 4.54688 7.61717 4.54688 6.65668C4.54688 5.69619 5.32303 4.92004 6.28351 4.92004C7.244 4.92004 8.02015 5.69619 8.02015 6.65668Z" stroke="white" stroke-width="1.24738" stroke-linecap="round" stroke-linejoin="round"/>
<path d="M6.28351 10.6684C7.99589 10.6684 9.59185 9.65945 10.7027 7.91311C11.1393 7.22913 11.1393 6.07945 10.7027 5.39547C9.59185 3.64913 7.99589 2.64014 6.28351 2.64014C4.57113 2.64014 2.97517 3.64913 1.8643 5.39547C1.42772 6.07945 1.42772 7.22913 1.8643 7.91311C2.97517 9.65945 4.57113 10.6684 6.28351 10.6684Z" stroke="white" stroke-width="1.24738" stroke-linecap="round" stroke-linejoin="round"/>
</svg>
