<svg width="24" height="25" viewBox="0 0 24 25" fill="none" xmlns="http://www.w3.org/2000/svg">
<path d="M12.678 20.8736C12.9528 20.9375 12.9779 21.2973 12.7103 21.3865L11.1303 21.9065C7.16034 23.1865 5.07034 22.1165 3.78034 18.1465L2.50034 14.1965C1.22034 10.2265 2.28034 8.12655 6.25034 6.84655L6.77434 6.67302C7.1772 6.5396 7.56927 6.94366 7.45487 7.35233C7.39817 7.55491 7.34362 7.76631 7.29034 7.98655L6.31034 12.1765C5.21034 16.8865 6.82034 19.4865 11.5303 20.6065L12.678 20.8736Z" fill="url(#paint0_linear_1057_7477)"/>
<path d="M17.1702 4.12657L15.5002 3.73657C12.1602 2.94657 10.1702 3.59657 9.00018 6.01657C8.70018 6.62657 8.46018 7.36657 8.26018 8.21657L7.28018 12.4066C6.30018 16.5866 7.59018 18.6466 11.7602 19.6366L13.4402 20.0366C14.0202 20.1766 14.5602 20.2666 15.0602 20.3066C18.1802 20.6066 19.8402 19.1466 20.6802 15.5366L21.6602 11.3566C22.6402 7.17657 21.3602 5.10657 17.1702 4.12657ZM15.2902 14.2466C15.2002 14.5866 14.9002 14.8066 14.5602 14.8066C14.5002 14.8066 14.4402 14.7966 14.3702 14.7866L11.4602 14.0466C11.0602 13.9466 10.8202 13.5366 10.9202 13.1366C11.0202 12.7366 11.4302 12.4966 11.8302 12.5966L14.7402 13.3366C15.1502 13.4366 15.3902 13.8466 15.2902 14.2466ZM18.2202 10.8666C18.1302 11.2066 17.8302 11.4266 17.4902 11.4266C17.4302 11.4266 17.3702 11.4166 17.3002 11.4066L12.4502 10.1766C12.0502 10.0766 11.8102 9.66657 11.9102 9.26657C12.0102 8.86657 12.4202 8.62657 12.8202 8.72657L17.6702 9.95657C18.0802 10.0466 18.3202 10.4566 18.2202 10.8666Z" fill="url(#paint1_linear_1057_7477)"/>
<defs>
<linearGradient id="paint0_linear_1057_7477" x1="-0.0373742" y1="8.12352" x2="19.4299" y2="19.0674" gradientUnits="userSpaceOnUse">
<stop stop-color="#37B6E1"/>
<stop offset="1" stop-color="#0960FF"/>
</linearGradient>
<linearGradient id="paint1_linear_1057_7477" x1="4.34308" y1="5.29883" x2="26.7988" y2="20.8608" gradientUnits="userSpaceOnUse">
<stop stop-color="#37B6E1"/>
<stop offset="1" stop-color="#0960FF"/>
</linearGradient>
</defs>
</svg>
