<svg width="21" height="21" viewBox="0 0 21 21" fill="none" xmlns="http://www.w3.org/2000/svg">
<path d="M7.98852 18.8877H13.047C17.2625 18.8877 18.9486 17.2016 18.9486 12.9861V7.92761C18.9486 3.71217 17.2625 2.026 13.047 2.026H7.98852C3.77309 2.026 2.08691 3.71217 2.08691 7.92761V12.9861C2.08691 17.2016 3.77309 18.8877 7.98852 18.8877Z" stroke="#2B9A28" stroke-width="1.51756" stroke-linecap="round" stroke-linejoin="round"/>
<path d="M7.98842 8.77066C8.91967 8.77066 9.67459 8.01574 9.67459 7.08449C9.67459 6.15324 8.91967 5.39832 7.98842 5.39832C7.05717 5.39832 6.30225 6.15324 6.30225 7.08449C6.30225 8.01574 7.05717 8.77066 7.98842 8.77066Z" stroke="#2B9A28" stroke-width="1.51756" stroke-linecap="round" stroke-linejoin="round"/>
<path d="M2.65186 16.3164L6.80827 13.5258C7.47431 13.0789 8.43543 13.1295 9.03402 13.6438L9.31224 13.8883C9.96985 14.4532 11.0321 14.4532 11.6897 13.8883L15.197 10.8785C15.8546 10.3136 16.9169 10.3136 17.5745 10.8785L18.9487 12.0588" stroke="#2B9A28" stroke-width="1.51756" stroke-linecap="round" stroke-linejoin="round"/>
</svg>
