<svg width="24" height="25" viewBox="0 0 24 25" fill="none" xmlns="http://www.w3.org/2000/svg">
<path d="M2.5798 19.9267L2.5598 19.9467C2.2898 19.3567 2.1198 18.6867 2.0498 17.9467C2.1198 18.6767 2.3098 19.3367 2.5798 19.9267Z" fill="url(#paint0_linear_904_16605)"/>
<path d="M9.00012 11.2966C10.3146 11.2966 11.3801 10.2311 11.3801 8.91662C11.3801 7.60218 10.3146 6.53662 9.00012 6.53662C7.68568 6.53662 6.62012 7.60218 6.62012 8.91662C6.62012 10.2311 7.68568 11.2966 9.00012 11.2966Z" fill="url(#paint1_linear_904_16605)"/>
<path d="M16.19 2.91663H7.81C4.17 2.91663 2 5.08663 2 8.72663V17.1066C2 18.1966 2.19 19.1466 2.56 19.9466C3.42 21.8466 5.26 22.9166 7.81 22.9166H16.19C19.83 22.9166 22 20.7466 22 17.1066V14.8166V8.72663C22 5.08663 19.83 2.91663 16.19 2.91663ZM20.37 13.4166C19.59 12.7466 18.33 12.7466 17.55 13.4166L13.39 16.9866C12.61 17.6566 11.35 17.6566 10.57 16.9866L10.23 16.7066C9.52 16.0866 8.39 16.0266 7.59 16.5666L3.85 19.0766C3.63 18.5166 3.5 17.8666 3.5 17.1066V8.72663C3.5 5.90663 4.99 4.41663 7.81 4.41663H16.19C19.01 4.41663 20.5 5.90663 20.5 8.72663V13.5266L20.37 13.4166Z" fill="url(#paint2_linear_904_16605)"/>
<defs>
<linearGradient id="paint0_linear_904_16605" x1="2.3148" y1="17.9467" x2="2.3148" y2="19.9467" gradientUnits="userSpaceOnUse">
<stop stop-color="#1863FD"/>
<stop offset="1" stop-color="#073697"/>
</linearGradient>
<linearGradient id="paint1_linear_904_16605" x1="5.78712" y1="7.06553" x2="12.3321" y2="12.1825" gradientUnits="userSpaceOnUse">
<stop stop-color="#37B6E1"/>
<stop offset="1" stop-color="#0960FF"/>
</linearGradient>
<linearGradient id="paint2_linear_904_16605" x1="-1.5" y1="5.13892" x2="26" y2="26.6389" gradientUnits="userSpaceOnUse">
<stop stop-color="#37B6E1"/>
<stop offset="1" stop-color="#0960FF"/>
</linearGradient>
</defs>
</svg>
