<svg width="15" height="15" viewBox="0 0 15 15" fill="none" xmlns="http://www.w3.org/2000/svg">
<path d="M5.02124 11.0871L6.73986 12.4176C6.96162 12.6394 7.46057 12.7503 7.79321 12.7503H9.8999C10.5652 12.7503 11.2859 12.2513 11.4522 11.5861L12.7827 7.53898C13.0599 6.76283 12.561 6.09756 11.7294 6.09756H9.51183C9.17919 6.09756 8.90199 5.82036 8.95743 5.43229L9.23463 3.65823C9.34551 3.15927 9.01287 2.60488 8.51392 2.43856C8.0704 2.27224 7.51601 2.494 7.29425 2.82664L5.02124 6.20844" stroke="white" stroke-width="1.24738" stroke-miterlimit="10"/>
<path d="M2.19409 11.0871V5.65406C2.19409 4.8779 2.52673 4.60071 3.30288 4.60071H3.85727C4.63342 4.60071 4.96606 4.8779 4.96606 5.65406V11.0871C4.96606 11.8633 4.63342 12.1405 3.85727 12.1405H3.30288C2.52673 12.1405 2.19409 11.8633 2.19409 11.0871Z" stroke="white" stroke-width="1.24738" stroke-linecap="round" stroke-linejoin="round"/>
</svg>
