<svg width="21" height="21" viewBox="0 0 21 21" fill="none" xmlns="http://www.w3.org/2000/svg">
<path d="M9.89798 2.69409C10.4718 2.20345 11.4115 2.20345 11.9936 2.69409L13.3075 3.82504C13.557 4.04125 14.0227 4.21591 14.3553 4.21591H15.769C16.6505 4.21591 17.374 4.93939 17.374 5.82088V7.23454C17.374 7.55886 17.5486 8.03287 17.7648 8.28235L18.8958 9.59628C19.3864 10.1701 19.3864 11.1098 18.8958 11.6919L17.7648 13.0058C17.5486 13.2553 17.374 13.7209 17.374 14.0536V15.4673C17.374 16.3488 16.6505 17.0723 15.769 17.0723H14.3553C14.031 17.0723 13.557 17.2469 13.3075 17.4631L11.9936 18.5941C11.4198 19.0847 10.4801 19.0847 9.89798 18.5941L8.58408 17.4631C8.33461 17.2469 7.86891 17.0723 7.53627 17.0723H6.09761C5.21613 17.0723 4.49265 16.3488 4.49265 15.4673V14.0453C4.49265 13.7209 4.31802 13.2553 4.11013 13.0058L2.98747 11.6836C2.50515 11.1098 2.50515 10.1784 2.98747 9.6046L4.11013 8.28235C4.31802 8.03287 4.49265 7.56718 4.49265 7.24286V5.82088C4.49265 4.93939 5.21613 4.21591 6.09761 4.21591H7.53627C7.86059 4.21591 8.33461 4.04125 8.58408 3.82504L9.89798 2.69409Z" fill="#387FFB"/>
<path d="M14.7458 9.86235C14.5878 9.63782 14.3217 9.51309 14.0057 9.51309H12.3841C12.276 9.51309 12.1762 9.47149 12.1097 9.38833C12.0432 9.30517 12.0099 9.19707 12.0265 9.08065L12.2261 7.78337C12.3092 7.40084 12.0515 6.96008 11.6689 6.83535C11.3114 6.70229 10.8872 6.88523 10.7209 7.13471L9.10763 9.52969V9.23033C9.10763 8.64822 8.85817 8.40706 8.24279 8.40706H7.83529C7.21992 8.40706 6.97046 8.64822 6.97046 9.23033V13.2054C6.97046 13.7875 7.21992 14.0286 7.83529 14.0286H8.24279C8.8249 14.0286 9.07438 13.8041 9.09933 13.2718L10.3218 14.2115C10.4881 14.3779 10.8623 14.4693 11.1284 14.4693H12.6668C13.199 14.4693 13.7313 14.0702 13.8477 13.5795L14.8207 10.6191C14.9288 10.353 14.9038 10.0786 14.7458 9.86235Z" fill="#DDF6FF"/>
</svg>
