<svg width="15" height="14" viewBox="0 0 15 14" fill="none" xmlns="http://www.w3.org/2000/svg">
<path d="M5.10522 10.6771L6.82384 12.0076C7.0456 12.2294 7.54455 12.3403 7.87719 12.3403H9.98389C10.6492 12.3403 11.3699 11.8413 11.5362 11.176L12.8667 7.12896C13.1439 6.35281 12.645 5.68754 11.8134 5.68754H9.59581C9.26317 5.68754 8.98598 5.41034 9.04142 5.02227L9.31861 3.24821C9.42949 2.74925 9.09686 2.19486 8.5979 2.02854C8.15439 1.86223 7.59999 2.08398 7.37824 2.41662L5.10522 5.79842" fill="#387FFB"/>
<path d="M5.10522 10.6771L6.82384 12.0076C7.0456 12.2294 7.54455 12.3403 7.87719 12.3403H9.98389C10.6492 12.3403 11.3699 11.8413 11.5362 11.176L12.8667 7.12896C13.1439 6.35281 12.645 5.68754 11.8134 5.68754H9.59581C9.26317 5.68754 8.98598 5.41034 9.04142 5.02227L9.31861 3.24821C9.42949 2.74925 9.09686 2.19486 8.5979 2.02854C8.15439 1.86223 7.59999 2.08398 7.37824 2.41662L5.10522 5.79842" stroke="white" stroke-width="1.24738" stroke-miterlimit="10"/>
<path d="M2.27759 10.6771V5.24402C2.27759 4.46787 2.61022 4.19067 3.38637 4.19067H3.94077C4.71692 4.19067 5.04955 4.46787 5.04955 5.24402V10.6771C5.04955 11.4532 4.71692 11.7304 3.94077 11.7304H3.38637C2.61022 11.7304 2.27759 11.4532 2.27759 10.6771Z" fill="#387FFB" stroke="white" stroke-width="1.24738" stroke-linecap="round" stroke-linejoin="round"/>
</svg>
