<svg width="21" height="21" viewBox="0 0 21 21" fill="none" xmlns="http://www.w3.org/2000/svg">
<path d="M8.01283 3.62209L15.1312 7.1813C18.3245 8.77795 18.3245 11.3891 15.1312 12.9858L8.01283 16.545C3.22288 18.94 1.26864 16.9774 3.66362 12.1958L4.3871 10.7571C4.595 10.333 4.595 9.84238 4.3871 9.41827L3.66362 7.97131C1.26864 3.18966 3.23119 1.22711 8.01283 3.62209Z" fill="#4AA5FF"/>
<path d="M12.4453 10.7072H7.95475C7.6138 10.7072 7.33105 10.4245 7.33105 10.0835C7.33105 9.74258 7.6138 9.45984 7.95475 9.45984H12.4453C12.7863 9.45984 13.069 9.74258 13.069 10.0835C13.069 10.4245 12.7863 10.7072 12.4453 10.7072Z" fill="white"/>
</svg>
