<svg width="22" height="21" viewBox="0 0 22 21" fill="none" xmlns="http://www.w3.org/2000/svg">
<path d="M11.3767 17.5556H6.04842C3.38426 17.5556 2.49902 15.7851 2.49902 14.0062V6.90743C2.49902 4.24327 3.38426 3.35803 6.04842 3.35803H11.3767C14.0409 3.35803 14.9261 4.24327 14.9261 6.90743V14.0062C14.9261 16.6704 14.0324 17.5556 11.3767 17.5556Z" stroke="#DA9C3F" stroke-width="1.51756" stroke-linecap="round" stroke-linejoin="round"/>
<path d="M17.2698 14.7566L14.926 13.1126V7.79271L17.2698 6.14869C18.4164 5.34776 19.3607 5.83675 19.3607 7.24471V13.669C19.3607 15.077 18.4164 15.566 17.2698 14.7566Z" stroke="#DA9C3F" stroke-width="1.51756" stroke-linecap="round" stroke-linejoin="round"/>
<path d="M10.508 9.61373C11.2065 9.61373 11.7727 9.04754 11.7727 8.3491C11.7727 7.65067 11.2065 7.08447 10.508 7.08447C9.8096 7.08447 9.24341 7.65067 9.24341 8.3491C9.24341 9.04754 9.8096 9.61373 10.508 9.61373Z" stroke="#DA9C3F" stroke-width="1.51756" stroke-linecap="round" stroke-linejoin="round"/>
</svg>
