<svg width="223" height="60" viewBox="0 0 223 60" fill="none" xmlns="http://www.w3.org/2000/svg">
<path fill-rule="evenodd" clip-rule="evenodd" d="M212 149.003H223.87V145.902C211.023 139.871 201.585 126.086 194.558 114.101C177.002 84.139 162.145 51.6494 129.024 35.912C123.376 33.2317 117.403 30.8959 111.257 29.8046C101.665 28.1199 91.5566 28.0816 82.2711 31.2214C77.3508 32.9062 72.8325 35.2994 68.5439 38.0754C89.3357 33.5954 110.51 42.8809 128.43 52.9322C137.237 57.8717 145.795 62.8494 153.262 69.7226C156.765 72.939 160.058 76.4618 160.441 81.4204C161.131 90.725 148.399 88.083 143.096 86.245C129.503 81.5736 117.001 72.2115 103.273 67.5018C105.035 68.9377 106.72 70.4693 108.27 72.1349C114.225 78.472 118.264 86.1876 123.376 93.1756C129.235 101.197 136.51 108.128 145.087 113.163C161.801 122.985 181.042 127.446 197.66 137.612C202.791 140.771 207.864 144.485 212 149.003Z" fill="url(#paint0_linear_349_4408)"/>
<path fill-rule="evenodd" clip-rule="evenodd" d="M-0.129883 58.8479V63.3088C3.23969 63.4237 6.62839 63.1173 9.88309 62.4664C29.8133 58.4459 45.5125 44.8144 64.677 39.0709C65.9597 38.6879 67.2424 38.3433 68.5443 38.0753C72.8329 35.2992 77.3511 32.9061 82.2715 31.2213C91.5569 28.0815 101.666 28.1197 111.257 29.8045C117.403 30.8958 123.376 33.2315 129.024 35.9119C162.146 51.6493 177.002 84.1389 194.559 114.101C201.585 126.086 211.024 139.871 223.87 145.902V88.0637C216.403 88.4083 208.745 85.9577 202.178 80.4821C189.581 69.9714 181.674 54.5785 171.68 41.7703C161.992 29.3642 148.84 18.662 133.849 13.3779C126.248 10.6784 118.667 9.05103 110.664 8.3235C96.305 7.00249 81.7928 9.26163 69.3867 16.8432C50.5477 28.3495 37.9118 48.8158 17.0243 57.3737C11.1084 59.7861 5.55627 59.9967 -0.129883 58.8479Z" fill="url(#paint1_linear_349_4408)"/>
<path fill-rule="evenodd" clip-rule="evenodd" d="M223.87 88.0638V-0.330086H-0.129883V58.848C5.55627 59.9968 11.1084 59.7862 17.0243 57.3738C37.9118 48.8159 50.5477 28.3496 69.3867 16.8433C81.7928 9.26172 96.305 7.00256 110.664 8.32359C118.667 9.05111 126.248 10.6785 133.849 13.378C148.84 18.6621 161.992 29.3643 171.68 41.7704C181.674 54.5786 189.581 69.9714 202.178 80.4822C208.745 85.9578 216.403 88.4084 223.87 88.0638Z" fill="url(#paint2_linear_349_4408)"/>
<path fill-rule="evenodd" clip-rule="evenodd" d="M134.124 82.5274C137.091 83.9251 140.059 85.2078 143.103 86.2608C148.406 88.0796 161.138 90.7216 160.429 81.417C160.066 76.4584 156.754 72.9357 153.269 69.7192C145.802 62.8461 137.244 57.8683 128.438 52.9288C109.388 42.2457 86.7009 32.4625 64.6646 39.0676C45.5002 44.8112 29.8011 58.4427 9.8708 62.4632C6.6161 63.1141 3.24653 63.4204 -0.123047 63.3056V63.5736C-0.0847563 63.6119 -0.0464657 63.6693 -0.0081751 63.7076C5.69712 70.4851 15.0209 72.3613 23.5405 71.9401C42.0349 71.0211 55.7812 58.6916 72.8014 53.35C84.346 49.7316 97.2882 51.0526 108.488 55.3028C117.869 58.8447 126.887 65.469 131.769 74.3715C133.052 76.7073 134.239 79.4642 134.162 82.1828C134.143 82.2977 134.143 82.4126 134.124 82.5274Z" fill="url(#paint3_linear_349_4408)"/>
<path fill-rule="evenodd" clip-rule="evenodd" d="M-0.123047 63.5734V106.382C17.0311 106.076 33.3046 97.1734 46.8212 86.6627C58.5382 77.5495 69.0298 65.7177 84.8055 64.7222C103.108 63.5543 118.195 74.9266 134.124 82.5273C134.143 82.4124 134.143 82.2975 134.162 82.1827C134.239 79.464 133.052 76.7071 131.769 74.3714C126.887 65.4688 117.869 58.8446 108.488 55.3027C97.2882 51.0524 84.346 49.7314 72.8014 53.3499C55.7812 58.6914 42.0349 71.021 23.5405 71.9399C15.0209 72.3611 5.69712 70.4849 -0.00817508 63.7075C-0.0464657 63.6692 -0.0847563 63.6117 -0.123047 63.5734Z" fill="url(#paint4_linear_349_4408)"/>
<defs>
<linearGradient id="paint0_linear_349_4408" x1="90.1054" y1="29.8793" x2="177.468" y2="127.199" gradientUnits="userSpaceOnUse">
<stop stop-color="#5D94FE"/>
<stop offset="1" stop-color="#0B5BFD"/>
</linearGradient>
<linearGradient id="paint1_linear_349_4408" x1="223.878" y1="127.89" x2="42.1179" y2="14.6257" gradientUnits="userSpaceOnUse">
<stop stop-color="#5D94FE"/>
<stop offset="1" stop-color="#0B5BFD"/>
</linearGradient>
<linearGradient id="paint2_linear_349_4408" x1="119.731" y1="-30.9756" x2="133.965" y2="67.7606" gradientUnits="userSpaceOnUse">
<stop stop-color="#5D94FE"/>
<stop offset="1" stop-color="#0B5BFD"/>
</linearGradient>
<linearGradient id="paint3_linear_349_4408" x1="26.4391" y1="34.7842" x2="116.684" y2="84.3506" gradientUnits="userSpaceOnUse">
<stop stop-color="#5D94FE"/>
<stop offset="1" stop-color="#0B5BFD"/>
</linearGradient>
<linearGradient id="paint4_linear_349_4408" x1="136.989" y1="51.2517" x2="-21.8388" y2="106.391" gradientUnits="userSpaceOnUse">
<stop stop-color="#5D94FE"/>
<stop offset="1" stop-color="#0B5BFD"/>
</linearGradient>
</defs>
</svg>
